<?xml version="1.0" standalone="no"?>
<!DOCTYPE svg PUBLIC "-//W3C//DTD SVG 1.1//EN" "http://www.w3.org/Graphics/SVG/1.1/DTD/svg11.dtd" >
<svg xmlns="http://www.w3.org/2000/svg" xmlns:xlink="http://www.w3.org/1999/xlink" version="1.1">
<metadata>
Created by FontForge 20190801 at Mon Sep 21 16:57:00 2015
 By root
Copyright (c) 2012 by Sorkin Type Co (www.sorkintype.com), with Reserved Font Name 'Vampiro'
</metadata>
<defs>
<font id="VampiroOne-Regular" horiz-adv-x="0" >
  <font-face 
    font-family="Vampiro One"
    font-weight="400"
    font-stretch="normal"
    units-per-em="1000"
    panose-1="2 0 5 3 0 0 0 2 0 4"
    ascent="800"
    descent="-200"
    x-height="522"
    cap-height="689"
    bbox="-213.964 -294 1063 956"
    underline-thickness="50"
    underline-position="-100"
    unicode-range="U+0001-F6C3"
  />
<missing-glyph horiz-adv-x="636" 
d="M48 922h540v-922h-540v922zM249 189l42 97l27 75l27 -75l42 -97h108l-128 259l128 255h-114l-41 -97l-23 -66l-22 66l-40 97h-114l128 -254l-128 -260h108z" />
    <glyph glyph-name=".notdef" horiz-adv-x="636" 
d="M48 922h540v-922h-540v922zM249 189l42 97l27 75l27 -75l42 -97h108l-128 259l128 255h-114l-41 -97l-23 -66l-22 66l-40 97h-114l128 -254l-128 -260h108z" />
    <glyph glyph-name=".null" 
 />
    <glyph glyph-name=".null" 
 />
    <glyph glyph-name="nonmarkingreturn" unicode="&#xd;" 
 />
    <glyph glyph-name="uni0001" 
 />
    <glyph glyph-name="uni0002" 
 />
    <glyph glyph-name="uni0003" 
 />
    <glyph glyph-name="uni0004" 
 />
    <glyph glyph-name="uni0005" 
 />
    <glyph glyph-name="uni0006" 
 />
    <glyph glyph-name="uni0007" 
 />
    <glyph glyph-name="uni0008" 
 />
    <glyph glyph-name="HT" unicode="&#x9;" 
 />
    <glyph glyph-name="LF" unicode="&#xa;" 
 />
    <glyph glyph-name="DLE" 
 />
    <glyph glyph-name="DC1" 
 />
    <glyph glyph-name="DC2" 
 />
    <glyph glyph-name="DC3" 
 />
    <glyph glyph-name="DC4" 
 />
    <glyph glyph-name="uni0015" 
 />
    <glyph glyph-name="uni0016" 
 />
    <glyph glyph-name="uni0017" 
 />
    <glyph glyph-name="uni0018" 
 />
    <glyph glyph-name="uni0019" 
 />
    <glyph glyph-name="RS" 
 />
    <glyph glyph-name="US" 
 />
    <glyph glyph-name="space" unicode=" " horiz-adv-x="362" 
 />
    <glyph glyph-name="exclam" unicode="!" horiz-adv-x="482" 
d="M99 246q60 137 104 212q69 119 171 260l112 -99q-102 -141 -145 -214q-71 -121 -130 -262zM27 76q27 27 66 27t66 -27t27 -66q0 -60 -57 -86q-56 -24 -102 20q-27 26 -27 65.5t27 66.5z" />
    <glyph glyph-name="quotedbl" unicode="&#x22;" horiz-adv-x="503" 
d="M66 465q97 159 151 261l114 -64q-61 -108 -98.5 -164t-60.5 -91zM309 465q97 159 151 261l114 -64q-61 -108 -98.5 -164t-60.5 -91z" />
    <glyph glyph-name="numbersign" unicode="#" horiz-adv-x="688" 
d="M295 187q-29 12 -76 31l-45 -124l-103 45l45 117l-79 27l41 97l79 -26l38 84q-19 7 -38 13l-38 12l40 99q55 -18 83 -29l55 108l98 -46q-35 -65 -52 -99l78 -31l53 101l97 -44l-52 -100l79 -37l-45 -96l-80 38q-10 -21 -19 -42l-18 -42l81 -39l-45 -97l-76 37
q-36 -94 -45 -122l-103 43zM374 369l-78 32q-10 -21 -19 -42l-18 -42l77 -31z" />
    <glyph glyph-name="dollar" unicode="$" horiz-adv-x="661" 
d="M182 29q-36 -45 -88 -113l-78 61q41 51 71 94q-60 31 -102 58l62 122q134 -85 259 -118q-23 43 -48.5 79t-47.5 72q-55 88 -69 159q99 108 195 174q34 23 70 46l54 -34l81 113l78 -58l-74 -107l58 -35q-12 -72 -62 -182l-122 59q14 32 21.5 64.5t14.5 64.5
q-60 -40 -105 -87q-17 -17 -39 -41q11 -50 63 -131q22 -35 48 -74.5t51 -88.5l-80 -142q-110 9 -211 45z" />
    <glyph glyph-name="percent" unicode="%" horiz-adv-x="788" 
d="M101 535q0 55 38 93t94 38q54 0 92 -38t38 -93q0 -56 -38 -93q-40 -38 -93 -38t-92 37.5t-39 93.5zM40 85q168 164 276 254.5t188 149.5t177 125l54 -68q-191 -129 -296.5 -216t-179 -155.5t-156.5 -152.5zM188 491q18 -18 43.5 -18t43.5 18t18 44t-18 44t-43.5 18
t-43.5 -18t-18 -44t18 -44zM380.5 71.5q-20.5 49.5 0.5 99.5t71.5 71.5t100.5 0t70.5 -71.5t0 -99t-70.5 -71.5t-101 -0.5t-71.5 71.5zM458 77q18 -18 43.5 -18t43.5 18t18 44t-18 44t-43.5 18t-43.5 -18t-18 -44t18 -44z" />
    <glyph glyph-name="ampersand" unicode="&#x26;" horiz-adv-x="756" 
d="M458 85q37 -63 74 -109l-128 -74q-47 63 -84 131q-129 -41 -271 -53l-126 186q75 73 125 106q82 55 171 97q-8 131 30 261l169 49q92 -45 172 -106l50 -124q-68 -59 -112 -84q-77 -42 -153 -65q9 -49 31 -105q85 33 149 73l60 -97q-69 -47 -157 -86zM371 559
q-13 -66 -11 -141q79 28 135 68q-69 45 -124 73zM85 126q85 5 180 26q-16 42 -27 88q-62 -36 -97.5 -66.5t-55.5 -47.5z" />
    <glyph glyph-name="quotesingle" unicode="'" horiz-adv-x="260" 
d="M66 465q97 159 151 261l114 -64q-61 -108 -98.5 -164t-60.5 -91z" />
    <glyph glyph-name="parenleft" unicode="(" horiz-adv-x="431" 
d="M73 -100q-15 305 81 502q107 218 369 354l73 -73q-123 -68 -204 -151q-157 -161 -195 -418q-18 -128 -16 -287z" />
    <glyph glyph-name="parenright" unicode=")" horiz-adv-x="431" 
d="M309.005 637.994q14.999 -304.981 -80.9951 -501.97q-106.994 -217.986 -368.978 -353.979l-72.9961 72.9961q122.993 67.9951 203.987 150.99q156.991 160.99 194.988 417.975q17.999 127.992 15.999 286.982z" />
    <glyph glyph-name="asterisk" unicode="*" horiz-adv-x="576" 
d="M287 433q-68 -36 -121 -74l-55 84q70 55 117 85q-50 50 -104 92l61 77q81 -55 120 -87q37 69 57 132l92 -36q-23 -83 -46 -141q82 -12 136 -12l-5 -98q-94 -5 -141 -2q11 -72 30 -134l-94 -27q-26 67 -47 141z" />
    <glyph glyph-name="plus" unicode="+" horiz-adv-x="609" 
d="M148 140q16 53 43 132q-65 21 -133 38l45 114q48 -13 130 -39q35 91 55 133l111 -45q-23 -52 -52 -127q110 -43 134 -54l-45 -111q-54 23 -131 52q-31 -92 -42 -133z" />
    <glyph glyph-name="comma" unicode="," horiz-adv-x="367" 
d="M-88 -165q100 161 145 268l130 -77q-73 -130 -169 -249z" />
    <glyph glyph-name="hyphen" unicode="-" horiz-adv-x="591" 
d="M415 181q-193 83 -378 129l46 114q192 -50 378 -132z" />
    <glyph glyph-name="period" unicode="." horiz-adv-x="366" 
d="M27 76q27 27 66 27t66 -27t27 -66q0 -60 -57 -86q-56 -24 -102 20q-27 26 -27 65.5t27 66.5z" />
    <glyph glyph-name="slash" unicode="/" horiz-adv-x="563" 
d="M-19 67q245 263 459 459q76 71 160 145l59 -68q-191 -168 -286 -263q-167 -165 -325 -345z" />
    <glyph glyph-name="zero" unicode="0" horiz-adv-x="664" 
d="M117 61q-71 264 73 443q97 120 270 170l171 -99q54 -270 -72 -431q-87 -113 -271 -180zM244 103q122 42 191 123q85 101 66 260q-3 25 -8 53q-120 -38 -188 -127q-78 -101 -68 -264q2 -22 7 -45z" />
    <glyph glyph-name="one" unicode="1" horiz-adv-x="476" 
d="M90 552q100 58 269 115l117 -123q-205 -292 -345 -573l-109 97q111 211 271 431q-70 -28 -152 -71z" />
    <glyph glyph-name="two" unicode="2" horiz-adv-x="607" 
d="M99 161q112 -39 325 -62l-58 -126q-182 22 -251 41t-105 33l-55 179q62 59 172 104l183 71q97 41 142 94q-46 24 -79 32q-100 23 -216 6l59 121q26 10 69 10t75.5 -5t63.5 -13q66 -18 109 -47l56 -155q-57 -92 -149 -140q-41 -22 -84 -36.5t-87 -28.5q-107 -34 -170 -78z
" />
    <glyph glyph-name="three" unicode="3" horiz-adv-x="599" 
d="M467 127q-132 -144 -331 -144q-86 0 -176 29l-17 136q102 -28 167.5 -28t116 14t91.5 49q-67 45 -184 93q-33 13 -61 21l57 115q190 0 319 76q-108 58 -251 51l-38 -2l61 123q108 13 193 -14q58 -19 112 -49l58 -165q-112 -74 -208 -100q-33 -9 -67 -15q65 -31 112 -64z
" />
    <glyph glyph-name="four" unicode="4" horiz-adv-x="664" 
d="M525 112q-46 18 -135 49q-59 -118 -89 -190l-109 96q33 77 63 136q-75 21 -207 54l-21 145q107 138 295 278l97 -78q-72 -60 -132.5 -113.5t-118.5 -116.5q102 -30 155 -48q100 167 227 327l95 -78q-101 -134 -192 -295q87 -32 125 -48z" />
    <glyph glyph-name="five" unicode="5" horiz-adv-x="603" 
d="M553 442q-152 65 -261 91l-96 -138q118 -34 238 -87l48 -132q-65 -97 -156.5 -143t-188 -46t-183.5 27l-15 134q150 -53 283 -6q60 22 105 75q-122 49 -253 84l-7 122l141 203q68 29 145 41q96 -25 154.5 -49t99.5 -41z" />
    <glyph glyph-name="six" unicode="6" horiz-adv-x="610" 
d="M223 401q78 31 157 23q10 -1 23 -2l120 -101q-24 -144 -121 -237q-96 -92 -246 -112l-161 130q6 113 29.5 205t73.5 164q103 146 331 217l114 -95q-125 -34 -201 -81.5t-119 -110.5zM139 100q81 8 143 60q66 57 91 150q-9 1 -17 1h-18q-84 0 -171 -29q-22 -76 -28 -182z
" />
    <glyph glyph-name="seven" unicode="7" horiz-adv-x="554" 
d="M-9 87q129 176 288 312q54 46 116 96q-151 28 -310 34l64 136q168 -6 282 -31q45 -9 92 -21l59 -124q-216 -172 -369 -368q-53 -68 -111 -150z" />
    <glyph glyph-name="eight" unicode="8" horiz-adv-x="620" 
d="M181 387q-28 65 -28 107.5t16 75.5t45 56q57 44 155 52l175 -99q17 -32 30.5 -65.5t13.5 -68.5q0 -95 -113 -131q-33 -10 -68 -14q57 -78 57 -152q0 -81 -77 -138q-73 -53 -177 -57l-184 103q-20 32 -36.5 68.5t-16.5 80.5t17 76.5t46 54.5q51 40 145 51zM457 483
q0 41 -35 92q-60 -2 -93 -26.5t-33 -66.5q0 -32 39 -92q122 17 122 93zM145 266q-37 -22 -37 -71t53 -118q56 2 90 20t49 36.5t15 45.5t-20.5 55.5t-50.5 59.5q-62 -6 -99 -28z" />
    <glyph glyph-name="nine" unicode="9" horiz-adv-x="608" 
d="M11 58q219 59 306 182q-77 -33 -178 -22l-120 102q24 146 121 238q96 91 248 111l159 -122q0 -326 -221 -489q-80 -59 -199 -96zM169 338q9 -1 17 -1h18q96 0 171 25q20 70 29 187q-122 -13 -198 -127q-24 -37 -37 -84z" />
    <glyph glyph-name="colon" unicode=":" horiz-adv-x="435" 
d="M27 76q27 27 66 27t66 -27t27 -66q0 -60 -57 -86q-56 -24 -102 20q-27 26 -27 65.5t27 66.5zM189 441q27 27 66 27t66 -27t27 -66q0 -60 -57 -86q-56 -24 -102 20q-27 26 -27 65.5t27 66.5z" />
    <glyph glyph-name="semicolon" unicode=";" horiz-adv-x="448" 
d="M202 441q27 27 66 27t66 -27t27 -66q0 -60 -57 -86q-56 -24 -102 20q-27 26 -27 65.5t27 66.5zM-77 -165q100 161 145 268l130 -77q-73 -130 -169 -249z" />
    <glyph glyph-name="less" unicode="&#x3c;" horiz-adv-x="609" 
d="M277 40q-99 126 -166 254l42 95q95 47 285 93l40 -101q-155 -46 -227 -83q13 -26 29 -53l32 -54q38 -64 61 -97z" />
    <glyph glyph-name="equal" unicode="=" horiz-adv-x="609" 
d="M394 56q-193 83 -378 129l46 114q192 -50 378 -132zM474 271q-193 83 -378 129l46 114q192 -50 378 -132z" />
    <glyph glyph-name="greater" unicode="&#x3e;" horiz-adv-x="609" 
d="M237.017 521.002q98.9941 -125.992 165.99 -253.984l-41.9971 -94.9941q-94.9941 -46.9971 -284.983 -92.9941l-39.9971 100.994q154.99 45.9971 226.986 82.9951q-13 25.998 -28.998 52.9961q-16 26.999 -31.998 53.9971q-37.998 63.9961 -60.9971 96.9941z" />
    <glyph glyph-name="question" unicode="?" horiz-adv-x="590" 
d="M116 643q214 97 381 58l90 -139q-12 -114 -87 -190q-33 -33 -71.5 -59t-75.5 -51.5t-68.5 -55.5t-49.5 -71l-118 87q29 67 109 126q34 24 69 46t65 46q67 56 79 131q-108 15 -283 -54zM36 76q27 27 66 27t66 -27t27 -66q0 -60 -57 -86q-56 -24 -102 20q-27 26 -27 65.5
t27 66.5z" />
    <glyph glyph-name="at" unicode="@" horiz-adv-x="1138" 
d="M949 -28q-250 -202 -514 -202q-86 0 -157 28t-121.5 76t-78.5 113t-28 145t22.5 155.5t62.5 139t94 114.5t117 86q133 73 274 73q81 0 150.5 -29t120.5 -80t81 -121q55 -131 7 -290q-110 -70 -283 -140q-47 -18 -80 -29l-66 74q-69 -50 -156 -77l-106 98q0 145 82 250
q88 116 237 129l56 -86q8 11 44 55l84 -67q-54 -70 -113 -178q-18 -33 -31 -63q62 15 131.5 40.5t85.5 34.5q18 54 18 112t-21.5 104t-58.5 79q-78 73 -187 73q-78 0 -157 -33.5t-142 -93t-102.5 -141t-39.5 -177.5q0 -116 73 -189q75 -75 194 -75t228.5 44.5t227.5 132.5z
M414 131q131 36 172 149q13 37 21 84q-94 -19 -145 -84q-46 -61 -48 -149z" />
    <glyph glyph-name="A" unicode="A" horiz-adv-x="686" 
d="M202 256q-111 -142 -175 -285l-109 101q65 122 171 255l-60 34l86 108l65 -36q122 130 236 216l74 -67q15 62 24 122l125 -108q-59 -300 -239 -643l-114 104q32 58 46 85q-55 61 -130 114zM289 358q54 -41 99 -89q61 152 90 267q-88 -69 -189 -178z" />
    <glyph glyph-name="B" unicode="B" horiz-adv-x="681" 
d="M411 278q47 -31 95 -71l-20 -126q-136 -87 -336 -108q-57 -6 -108 -6l-113 102q128 283 303 495q-77 11 -122 11l43 119q120 -5 231 -23.5t217 -64.5l76 -169q-107 -112 -266 -159zM246 347q100 24 150 48q80 37 133 84q-105 53 -270 80l89 -72q-74 -96 -102 -140z
M104 103q160 6 265 63q-35 40 -125 82q-25 11 -48 21q-53 -86 -92 -166z" />
    <glyph glyph-name="C" unicode="C" horiz-adv-x="608" 
d="M127 124q158 11 288 75l39 -114q-164 -101 -379 -117l-127 118q45 196 160 355q131 179 318 258l190 -137q-26 -85 -94 -197q-19 -31 -36 -55l-116 64q68 117 91 197q-125 -62 -221 -190q-92 -125 -113 -257z" />
    <glyph glyph-name="D" unicode="D" horiz-adv-x="692" 
d="M-57 92q63 142 111 224q80 135 173 248q-77 11 -125 11l43 119q120 -5 231 -23.5t217 -64.5l59 -134q-48 -203 -213 -336q-152 -122 -368 -162zM119 123q136 39 241 134q111 100 146 233q-107 45 -250 69l88 -72q-140 -177 -225 -364z" />
    <glyph glyph-name="E" unicode="E" horiz-adv-x="607" 
d="M116 133q136 -30 305 -36l-41 -129q-151 3 -320 40l-114 104q70 161 208 359q39 57 76 102q-70 11 -115 11l47 124q281 -9 499 -102l-57 -146q-151 72 -343 108l86 -71q-48 -58 -87 -118q99 -22 197 -31l-45 -127q-153 27 -224 46q-38 -63 -72 -134z" />
    <glyph glyph-name="F" unicode="F" horiz-adv-x="584" 
d="M-77 76q79 174 224 383q43 62 80 107q-70 11 -115 11l46 124q267 -9 485 -96l-57 -145q-145 64 -328 101l86 -71q-47 -61 -101 -139q61 -12 198 -55l-49 -122l-122 40q-46 14 -97 27q-86 -145 -136 -270z" />
    <glyph glyph-name="G" unicode="G" horiz-adv-x="667" 
d="M-47 97q43 184 179 347q142 170 335 251l182 -133q-21 -73 -71 -158l-123 68q17 34 34 90q-208 -107 -307 -293q-33 -62 -49 -129q122 18 208 44q22 44 50 108l134 -69q-106 -208 -264 -410l-107 97q73 93 100 133q-97 -32 -196 -44z" />
    <glyph glyph-name="H" unicode="H" horiz-adv-x="730" 
d="M341 180q-74 48 -135 81q-85 -162 -139 -290l-117 107q50 111 129 248l-79 38l68 117l80 -38q92 150 165 243l108 -97q-41 -54 -144 -211q64 -36 130 -77q146 251 238 367l108 -97q-118 -159 -227 -351l85 -63l-78 -114l-71 54q-43 -85 -69 -155l-116 107q24 54 64 131z
" />
    <glyph glyph-name="I" unicode="I" horiz-adv-x="360" 
d="M-63 77q147 331 358 612l102 -104q-102 -141 -167 -258q-115 -208 -178 -356z" />
    <glyph glyph-name="J" unicode="J" horiz-adv-x="494" 
d="M-23 -29q-43 130 -55 248l132 26q12 -76 34 -153q110 247 242 456q47 75 97 141l104 -104q-120 -166 -257 -439q-41 -81 -71 -148z" />
    <glyph glyph-name="K" unicode="K" horiz-adv-x="674" 
d="M346 251q52 -91 152 -223l-134 -86q-95 137 -178 314q-62 -104 -153 -285l-110 102q153 291 287 484q46 66 96 132l103 -106q-94 -117 -175 -249q231 141 391 291l93 -108q-93 -89 -160 -136q-97 -68 -212 -130z" />
    <glyph glyph-name="L" unicode="L" horiz-adv-x="510" 
d="M125 140q104 -22 266 -38l-43 -139q-137 12 -196.5 23t-93.5 18l-120 109q122 254 359 576l103 -104q-131 -180 -275 -445z" />
    <glyph glyph-name="M" unicode="M" horiz-adv-x="891" 
d="M669 412q-172 -226 -356 -446l-106 92q45 271 88 425q-108 -172 -193 -345q-34 -68 -73 -152l-107 100q93 188 156 291q110 178 231 336l147 -129q-59 -190 -88 -367q159 193 345 461l143 -123q-60 -194 -88.5 -268.5t-48.5 -124.5q-36 -90 -97 -228l-119 97
q83 168 117 254t49 127z" />
    <glyph glyph-name="N" unicode="N" horiz-adv-x="727" 
d="M-70 77q57 137 165 325q97 170 198 302l99 -97q2 -167 18 -351q107 225 241 409l102 -94q-164 -229 -313 -581l-133 -27q-32 236 -42 450q-134 -225 -219 -442z" />
    <glyph glyph-name="O" unicode="O" horiz-adv-x="686" 
d="M607 386q-106 95 -198 151q-102 -53 -181 -180q-82 -131 -92 -266q157 43 268 213q37 58 65 132l138 -50q-67 -188 -175 -291q-117 -112 -302 -147l-148 136q29 308 253 496q78 66 183 115q133 -68 234 -174z" />
    <glyph glyph-name="P" unicode="P" horiz-adv-x="674" 
d="M-66 75q67 148 120 235q86 143 179 253q-69 12 -124 12l43 119q188 -6 327 -49q52 -16 105 -39l78 -175q-69 -98 -176.5 -169.5t-232.5 -105.5l-66 94q-78 -131 -139 -280zM202 275q211 73 317 201q-95 50 -255 82l86 -71q-80 -101 -148 -212z" />
    <glyph glyph-name="Q" unicode="Q" horiz-adv-x="666" 
d="M202 10q85 -41 209 -88l-64 -125q-162 61 -280 138q-41 27 -87 61l52 98q35 7 74 20l-99 68q14 180 129 322q114 142 290 193l64 -101q6 32 11 88l132 -101q-26 -217 -130 -363.5t-301 -209.5zM131 123q293 111 356 456q-149 -50 -240.5 -168t-115.5 -288z" />
    <glyph glyph-name="R" unicode="R" horiz-adv-x="678" 
d="M338 213q60 -96 144 -185l-133 -86q-92 119 -177 284q-69 -119 -125 -255l-113 104q67 148 120 235q86 143 179 253q-69 12 -125 12l43 119q188 -6 327 -49q52 -16 105 -39l78 -172q-102 -135 -323 -221zM212 293q136 52 242 131q36 26 62 53q-95 50 -252 80l86 -70
q-80 -102 -138 -194z" />
    <glyph glyph-name="S" unicode="S" horiz-adv-x="612" 
d="M468 587q-107 -57 -194 -152q11 -35 32 -74.5t44 -84.5q61 -114 87 -195l-84 -134q-187 49 -332 137q-45 28 -89 58l67 122q152 -105 278 -154q-24 59 -72 142.5t-69.5 126t-33.5 84.5q62 77 158 152q88 69 168 107l193 -129q-19 -85 -87 -211q-17 -32 -30 -51l-120 69
q40 64 84 187z" />
    <glyph glyph-name="T" unicode="T" horiz-adv-x="576" 
d="M144.5 345.5q72.5 115.5 137.5 205.5q-120 38 -211 61l74 115q220 -42 506 -153l-69 -138q-156 65 -270 105l85 -76q-115 -156 -205 -351q-31 -65 -64 -143l-117 107q61 152 133.5 267.5z" />
    <glyph glyph-name="U" unicode="U" horiz-adv-x="680" 
d="M273 57q-73 -38 -197 -82l-126 121q124 327 333 599l108 -107q-108 -131 -211 -332q-30 -60 -54 -116q120 27 202 60v-2q159 328 269 462l110 -107q-156 -188 -321 -603z" />
    <glyph glyph-name="V" unicode="V" horiz-adv-x="655" 
d="M173 131q227 198 407 529l108 -107q-146 -274 -366 -479q-69 -65 -138 -112l-105 97q39 26 61 45l-102 89q61 196 164 351q-34 -16 -113 -59l-49 115q100 57 148 76t84 31l111 -118q-152 -237 -210 -458z" />
    <glyph glyph-name="W" unicode="W" horiz-adv-x="974" 
d="M500 115q215 176 361 503l109 -100q-75 -173 -201 -323t-273 -242l-132 117q9 33 28 96q-78 -90 -152 -151q-26 -22 -54 -44l-150 135q47 234 166 427q-49 -23 -110 -57l-49 115q102 58 150.5 78.5t84.5 32.5l112 -112q-143 -223 -203 -449q210 176 397 519l104 -96
l-18 -33q-73 -135 -103 -211q-40 -105 -67 -205z" />
    <glyph glyph-name="X" unicode="X" horiz-adv-x="604" 
d="M350 302q32 -139 98 -303l-141 -37q-53 141 -80 262q-60 -46 -113 -101t-111 -120l-93 109q151 162 290 255q-9 82 -9 167q-48 -21 -87 -42l-48 110q90 56 193 92l87 -96q-8 -65 -6 -144q115 101 248 186l90 -120q-166 -92 -318 -218z" />
    <glyph glyph-name="Y" unicode="Y" horiz-adv-x="566" 
d="M245 353q158 138 278 310l112 -107q-186 -236 -390 -360q-55 -85 -108 -237l-124 107q42 105 60.5 138.5t38.5 65.5q-23 200 37 461l134 -123q-34 -133 -38 -255z" />
    <glyph glyph-name="Z" unicode="Z" horiz-adv-x="631" 
d="M167 134q104 -30 263 -55l-51 -131q-278 46 -444 131l39 114q123 51 267 143q122 77 222 163q-94 36 -199 61q14 -80 19 -105l-132 -16q-24 84 -32 172l129 90q108 -24 177 -50q101 -37 217 -92l-41 -122q-173 -168 -434 -303z" />
    <glyph glyph-name="bracketleft" unicode="[" horiz-adv-x="513" 
d="M123 -26q98 -37 164 -55l-28 -89q-97 14 -178 48l-89 87q107 241 181 375q121 218 263 431q117 -39 148.5 -52.5t61.5 -26.5l-32 -85q-40 16 -118 40q-125 -201 -182 -303q-121 -215 -191 -370z" />
    <glyph glyph-name="backslash" unicode="\" horiz-adv-x="470" 
d="M309 -44q-114 364 -209 591q-24 57 -54 124l83 44q140 -332 219 -576q20 -62 43 -135z" />
    <glyph glyph-name="bracketright" unicode="]" horiz-adv-x="513" 
d="M346.008 554.998q-97.9941 36.998 -163.99 54.9971l27.998 88.9941q96.9941 -13.999 177.989 -47.9971l88.9951 -86.9941q-106.994 -240.985 -180.989 -374.978q-120.993 -217.986 -262.984 -430.974q-116.992 38.998 -148.49 52.4971q-31.499 13.499 -61.4971 26.498
l31.998 84.9951q39.998 -15.999 117.993 -39.998q124.992 200.988 181.989 302.982q120.992 214.986 190.988 369.977z" />
    <glyph glyph-name="asciicircum" unicode="^" horiz-adv-x="654" 
d="M334 383q-114 -77 -232 -178l-59 97q104 107 227 196q39 28 77 51l98 -45q40 -220 48 -389l-114 -24q-15 129 -45 292z" />
    <glyph glyph-name="underscore" unicode="_" horiz-adv-x="679" 
d="M626 -106v-94h-717v94h717z" />
    <glyph glyph-name="grave" unicode="`" horiz-adv-x="355" 
d="M226 544q-58 135 -138 253l113 62q66 -120 123 -272z" />
    <glyph glyph-name="a" unicode="a" horiz-adv-x="616" 
d="M272 63q-79 -62 -182 -90l-124 115q0 79 24 155t71 137t116.5 101.5t160.5 48.5l66 -101q12 19 51 66l98 -84q-99 -129 -164 -276l-3 -2q58 15 136 51.5t99 47.5l22 -101q-59 -43 -196 -111q-54 -27 -98 -43zM106 117q107 29 195 142q26 57 39 142q-103 -10 -169 -91
q-65 -80 -65 -193z" />
    <glyph glyph-name="b" unicode="b" horiz-adv-x="608" 
d="M415 155q64 17 198 77l21 -101q-125 -63 -195 -87q-101 -33 -285 -71l-104 83l-26 -83l-110 86q50 157 216 457q69 124 119 198l104 -77q-44 -64 -143 -229q59 54 133 96l156 -122q-17 -119 -84 -227zM116 108q52 0 82 9t44.5 19t34.5 37t37 61q38 78 45 147
q-62 -22 -120 -57.5t-95 -75.5q-25 -66 -28 -140z" />
    <glyph glyph-name="c" unicode="c" horiz-adv-x="531" 
d="M110 103q245 32 426 129l22 -101q-154 -97 -342 -141q-63 -14 -124 -17l-124 115q0 71 9 110q39 165 191 266q68 45 138 67l160 -119q-5 -23 -28 -73q-38 -84 -60 -115l-126 80q54 68 68 114q-96 -41 -156 -132q-54 -82 -54 -183z" />
    <glyph glyph-name="d" unicode="d" horiz-adv-x="611" 
d="M272 63q-79 -62 -182 -90l-124 115q0 79 24 155t71 137t116.5 101.5t160.5 48.5l55 -84q78 151 164 268l97 -84q-99 -126 -205 -358q-32 -70 -57 -137q107 32 224 97l22 -101q-68 -51 -220 -125q-43 -20 -69 -29zM106 117q107 29 195 142q26 57 39 142q-103 -10 -169 -91
q-65 -80 -65 -193z" />
    <glyph glyph-name="e" unicode="e" horiz-adv-x="538" 
d="M201 193q-47 0 -74 7q-16 -39 -20 -97q172 10 332 77q54 22 104 52l21 -101q-93 -59 -220 -104q-135 -48 -255 -54l-124 115q0 138 75 252q54 79 122.5 125t131.5 66l169 -140q-25 -104 -95 -151t-167 -47zM169 290q58 0 101 32q50 38 50 106q-101 -55 -151 -138z" />
    <glyph glyph-name="f" unicode="f" horiz-adv-x="553" 
d="M-115 -198q48 157 136 345q-50 50 -96 104l63 77l42 -42q18 -18 35 -33q48 168 145 309q87 127 192 200l169 -121q-26 -143 -94.5 -264t-173.5 -206q130 22 255 61l21 -101q-178 -57 -393 -100l-61 39q-73 -178 -120 -354zM160 180q102 86 186 223q81 134 98 234
q-211 -211 -284 -457z" />
    <glyph glyph-name="g" unicode="g" horiz-adv-x="620" 
d="M-125 -72q62 56 144 97l-56 53q0 79 25.5 154t74.5 134.5t120 98.5t162 47l56 -94q31 45 58 77l97 -84q-58 -77 -124 -195q-20 -36 -35 -70q153 44 228 86l21 -101q-82 -61 -178 -109q-35 -18 -61 -27l-43 48q-39 -174 -112 -271q-25 -34 -55 -66q-113 3 -241 35
q-41 10 -76 22zM103 103q59 17 90 35q58 36 100 91q30 66 44 153q-102 -10 -169 -88q-65 -77 -65 -191zM-24 -145q98 -23 152 -23q62 53 102 173q-157 -63 -254 -150z" />
    <glyph glyph-name="h" unicode="h" horiz-adv-x="629" 
d="M188 349q93 71 214 135l121 -95q-33 -142 -116 -256q100 34 227 99l21 -101q-41 -27 -125 -69q-144 -71 -199 -89l-124 88q60 72 100.5 142.5t52.5 123.5q-131 -65 -172.5 -92t-74.5 -50q-49 -121 -75 -212l-119 77q33 113 145 338q102 206 183 326l102 -77
q-84 -136 -161 -288z" />
    <glyph glyph-name="i" unicode="i" horiz-adv-x="332" 
d="M243 566q-23 24 -23 58t23.5 57.5t57.5 23.5t57.5 -23.5t23.5 -57.5t-23.5 -57.5t-57.5 -23.5t-58 23zM92 126q102 31 245 106l21 -101q-97 -63 -234 -123q-46 -20 -90 -35l-115 106q49 134 176 334q38 60 74 105l99 -73q-73 -100 -142 -241q-20 -42 -34 -78z" />
    <glyph glyph-name="j" unicode="j" horiz-adv-x="332" 
d="M243 566q-23 24 -23 58t23.5 57.5t57.5 23.5t57.5 -23.5t23.5 -57.5t-23.5 -57.5t-57.5 -23.5t-58 23zM25 8q-56 -121 -113 -302l-116 73q123 381 318 664q29 42 55 75l99 -73q-120 -165 -185 -321q74 22 135.5 50.5t118.5 57.5l21 -101q-90 -59 -218 -115
q-44 -19 -88 -34z" />
    <glyph glyph-name="k" unicode="k" horiz-adv-x="552" 
d="M579 131q-136 -91 -279 -158l-125 88q-31 88 -41 170q-51 -116 -101 -258l-119 77q87 234 239 502q48 84 98 162l103 -77q-101 -149 -189 -336q134 125 278 228l102 -95q-184 -117 -284 -189q17 -48 51 -117q127 43 245 104z" />
    <glyph glyph-name="l" unicode="l" horiz-adv-x="492" 
d="M-63 88q43 155 153 351q73 130 164 231q46 51 95 86l169 -119q-34 -273 -248 -385q-69 -36 -154 -57q-24 -59 -37 -101q124 17 193 38q135 40 225 100l21 -101q-147 -102 -334 -142q-62 -13 -123 -16zM174 320q91 43 145 124t72 190q-79 -71 -169 -226q-26 -44 -48 -88z
" />
    <glyph glyph-name="m" unicode="m" horiz-adv-x="917" 
d="M501 339q81 65 180 118l121 -95q-32 -133 -106 -229q97 33 226 99l21 -101q-41 -27 -125 -69q-144 -71 -199 -89l-124 88q124 149 146 242q-105 -51 -198 -118q-49 -110 -121 -212l-115 79q48 64 81 124q53 98 65 154q-96 -45 -177 -102q-28 -19 -59 -41
q-45 -106 -79 -214l-119 77q34 115 106 259q65 129 136 218l101 -73q-36 -49 -64 -101q91 75 195 131l121 -95z" />
    <glyph glyph-name="n" unicode="n" horiz-adv-x="629" 
d="M195 348q100 79 207 136l121 -95q-33 -142 -116 -256q100 34 227 99l21 -101q-41 -27 -125 -69q-144 -71 -199 -89l-124 88q60 72 100.5 142.5t52.5 123.5q-128 -60 -244 -140q-46 -110 -78 -214l-119 77q34 115 106 259q65 129 136 218l101 -73q-35 -47 -67 -106z" />
    <glyph glyph-name="o" unicode="o" horiz-adv-x="586" 
d="M361 113q-96 -111 -253 -140l-142 119q0 96 38 190q48 118 158 191q76 51 165 63l159 -136q-17 -108 -58 -188q72 4 163 20l22 -101q-130 -54 -204 -73zM100 109q114 26 190 141q32 49 46 94t15 72q-81 -11 -154 -86q-91 -93 -97 -221z" />
    <glyph glyph-name="p" unicode="p" horiz-adv-x="610" 
d="M199 364q66 59 175 120l121 -95q-8 -80 -26 -138t-59 -100q108 35 205 81l21 -101q-127 -71 -354 -127q-70 -18 -141 -31l-93 85q-86 -194 -128 -342l-114 77q123 370 345 744l101 -74zM60 85q108 17 158 37q72 34 114 144q14 34 19 70q-102 -54 -187 -116
q-29 -21 -62 -46z" />
    <glyph glyph-name="q" unicode="q" horiz-adv-x="616" 
d="M175 3q-38 -17 -85 -30l-124 115q0 79 24 155t71 137t116.5 101.5t160.5 48.5l66 -101q12 19 51 66l98 -84q-99 -129 -164 -276l-3 -2q58 15 136 51.5t99 47.5l22 -101q-59 -43 -196 -111q-54 -27 -98 -43l-31 34q-70 -161 -112 -295l-114 77q38 109 83 210zM106 117
q107 29 195 142q26 57 39 142q-103 -10 -169 -91q-65 -80 -65 -193z" />
    <glyph glyph-name="r" unicode="r" horiz-adv-x="584" 
d="M38 448q48 65 120 135l93 -72q-11 -46 -19 -67q129 14 186 28t99 25l28 -119q-41 -12 -86 -21q-69 -109 -115 -231q166 57 245 106l22 -101q-92 -60 -241 -123q-48 -20 -92 -35l-106 106q65 149 139 257q-70 -6 -124 -8q-16 -30 -86 -150l-74 -47l-95 56q83 90 112 126
t50 62q-29 32 -56 73z" />
    <glyph glyph-name="s" unicode="s" horiz-adv-x="581" 
d="M135 -35q-72 48 -126 91q-49 43 -107 103l103 73q70 -73 103 -97.5t59 -41.5q28 3 91 19l-166 157q-23 24 -36 43q38 68 131 141q87 68 166 91l160 -129q-17 -68 -80 -180l-107 80q21 31 37 67t19 48q-56 -21 -115 -76q-21 -20 -38 -41q19 -29 58 -61q66 -57 111 -98
q111 38 188 78l21 -101q-80 -57 -225 -106q-134 -45 -247 -60z" />
    <glyph glyph-name="t" unicode="t" horiz-adv-x="447" 
d="M249 442q93 10 137 22l23 -108q-88 -22 -224 -26q-61 -120 -91 -218q81 14 173 40.5t185 79.5l21 -101q-91 -63 -208 -108q-115 -44 -204 -50l-124 115q59 196 201 413q44 68 94 131l89 -82q-39 -54 -72 -108z" />
    <glyph glyph-name="u" unicode="u" horiz-adv-x="600" 
d="M245 75q-63 -60 -162 -102l-133 115q14 113 70 223t144 229l103 -79q-140 -189 -177 -344q1 0 18.5 5.5t45.5 21.5q71 40 131 115q70 142 134 232l107 -83q-94 -138 -153 -273l-4 -2q64 17 139.5 52t96.5 47l21 -101q-62 -45 -195 -111q-54 -27 -98 -43z" />
    <glyph glyph-name="v" unicode="v" horiz-adv-x="597" 
d="M278 103q-97 -86 -192 -130l-133 115q18 104 49 182q49 127 125 265l110 -75q-58 -103 -82 -166q-36 -95 -52 -168q94 43 241 256q44 63 83 131l115 -75q-88 -146 -184 -254q59 3 137 21t107 27l22 -101q-86 -46 -222 -85q-37 -10 -63 -15z" />
    <glyph glyph-name="w" unicode="w" horiz-adv-x="912" 
d="M280 119q-88 -86 -196 -137l-125 106q21 107 50 184q47 123 124 263l110 -75q-58 -103 -82 -166q-36 -95 -52 -168q66 30 165 148q100 118 177 252l110 -75q-95 -167 -125 -258q-11 -35 -18 -67q94 43 242 256q43 63 82 131l115 -75q-88 -146 -184 -254q59 3 137 21
t107 27l22 -101q-86 -46 -222 -85q-37 -10 -63 -15q-1 0 -29.5 33t-32.5 38q-89 -81 -191 -129l-130 97z" />
    <glyph glyph-name="x" unicode="x" horiz-adv-x="581" 
d="M44 -9q-55 67 -112 167l73 74q21 -37 38 -59q47 49 82 76q-35 104 -49 227l125 58q16 -119 39 -192q50 47 99.5 90t112.5 86l113 -77q-115 -82 -281 -223q17 -44 38 -81q123 36 175.5 57.5t88.5 37.5l21 -101q-170 -94 -351 -158q-50 85 -81 153q-34 -32 -64 -64.5
t-67 -70.5z" />
    <glyph glyph-name="y" unicode="y" horiz-adv-x="606" 
d="M384 147q162 47 227 85l22 -101q-80 -60 -179 -109q-35 -18 -61 -27l-49 54q-28 -127 -66 -203q-36 -70 -102 -140q-110 3 -241 35q-41 10 -75 22l-6 165q67 59 149 100l-58 42q9 132 137 340q40 65 88 130l104 -79q-175 -246 -189 -362q53 8 85 25q64 34 102 99
q86 172 154 268l106 -83q-98 -150 -148 -261zM-45 -145q92 -21 152 -23q65 55 102 173q-163 -66 -254 -150z" />
    <glyph glyph-name="z" unicode="z" horiz-adv-x="510" 
d="M56 117q261 16 459 115l21 -101q-94 -59 -236 -105q-151 -47 -266 -53l-120 111q18 83 33 117q192 102 309 172q-74 28 -234 9l80 135q23 5 52 5q60 0 109.5 -23.5t100.5 -58.5l55 37l54 -104q-131 -93 -238 -155t-179 -101z" />
    <glyph glyph-name="braceleft" unicode="{" horiz-adv-x="490" 
d="M117 -166q-40 127 -6 268q21 88 68 175q14 28 -46 69q-18 12 -41 26l42 82q60 -14 97 -12t45 16q19 34 44 79t60 89q82 103 199 138l45 -88q-117 -52 -201 -206q-24 -43 -50 -87q-54 -27 -125 -22q36 -77 33 -142q-88 -156 -67 -364z" />
    <glyph glyph-name="bar" unicode="|" horiz-adv-x="502" 
d="M201 731l69 -63v-853l-69 68v848z" />
    <glyph glyph-name="braceright" unicode="}" horiz-adv-x="490" 
d="M338.007 703.99q39.998 -126.992 6 -267.984q-20.999 -87.9941 -67.9961 -174.989q-13.999 -27.998 45.9971 -68.9951q17.999 -12 40.998 -25.999l-41.998 -81.9951q-59.9961 14 -96.9941 12q-36.9971 -2 -44.9971 -15.999q-18.999 -33.998 -43.9971 -78.9951
q-24.998 -44.998 -59.9961 -88.9951q-81.9951 -102.993 -198.988 -137.991l-44.9971 87.9941q116.993 51.9971 200.987 205.987q23.999 42.998 49.9971 86.9951q53.9971 26.998 124.993 21.999q-35.998 76.9951 -32.998 141.991q87.9941 155.99 66.9951 363.978z" />
    <glyph glyph-name="asciitilde" unicode="~" horiz-adv-x="620" 
d="M94 414q52 10 84.5 10t64 -18.5t61.5 -41t62 -41t64 -18.5t58 3l-36 -113q-97 -23 -148 9q-31 18 -60 40.5t-61.5 41t-65 18.5t-59.5 -3z" />
    <glyph glyph-name="DEL" 
 />
    <glyph glyph-name="nonbreakingspace" unicode="&#xa0;" horiz-adv-x="362" 
 />
    <glyph glyph-name="exclamdown" unicode="&#xa1;" horiz-adv-x="482" 
d="M439 529q-37 0 -66 27q-27 27 -27 66t27 66t66 27t66 -27t27 -66q0 -60 -57 -86q-17 -7 -36 -7zM-1 12q84 176 193 350q37 59 81 127l109 -101q-148 -215 -272 -474z" />
    <glyph glyph-name="cent" unicode="&#xa2;" horiz-adv-x="608" 
d="M1 16l72 101l-31 26q-19 240 174 390q65 50 132 76l52 -33l77 102l69 -53l-70 -97l47 -29q-12 -64 -58 -162l-126 63q28 43 41 88q-48 -20 -90.5 -55.5t-67.5 -81.5q-45 -86 -38 -184q124 23 206 53l35 -114q-119 -54 -247 -75l-35 28l-73 -96z" />
    <glyph glyph-name="sterling" unicode="&#xa3;" horiz-adv-x="659" 
d="M197 140q106 -33 246 -58l-39 -123q-137 20 -212 43q-119 36 -240 89l57 121q80 -35 158 -62l-92 68q33 71 62 120q-30 16 -58 32l48 87l61 -33q8 14 17 28l18 28q84 128 204 190l197 -126q-28 -106 -71 -180l-117 63q41 64 60 139q-72 -54 -144 -148q-10 -14 -37 -54
q52 -22 121 -47l-37 -92q-49 16 -133 52q-5 -10 -69 -137z" />
    <glyph glyph-name="currency" unicode="&#xa4;" horiz-adv-x="683" 
d="M162 179q-58 -27 -95 -49l-54 87q50 35 97 61q-4 20 -4 41q0 86 58 146q-18 42 -48 95l88 54q26 -39 59 -94q24 6 50 6q86 0 144 -60q49 22 93 49l53 -89q-53 -35 -93 -59q6 -23 6 -48q0 -86 -63 -147q27 -59 50 -94l-88 -53q-35 48 -62 96q-17 -4 -40 -4q-91 0 -151 62z
M242 252q28 -28 69 -28q39 0 67 28q27 27 27 67.5t-27 68t-67.5 27.5t-68.5 -27.5t-28 -68.5q0 -39 28 -67z" />
    <glyph glyph-name="yen" unicode="&#xa5;" horiz-adv-x="659" 
d="M291 16q-33 14 -76 37q-19 -45 -36 -95l-123 98l32 72q-56 36 -93 65l43 62q33 -26 84 -58q8 17 21 40q-48 32 -82 58l43 61l71 -49q5 223 47 375l115 -110q-23 -88 -32 -205q66 48 104 82q66 59 142 137l100 -91q-90 -93 -143 -134q-96 -76 -197 -137q46 -26 83 -43
l-37 -64q-38 15 -92 46l-20 -40q43 -26 83 -44z" />
    <glyph glyph-name="brokenbar" unicode="&#xa6;" horiz-adv-x="502" 
d="M201 404v327l69 -63v-331zM201 210l69 -63v-332l-69 68v327z" />
    <glyph glyph-name="section" unicode="&#xa7;" horiz-adv-x="706" 
d="M598 299q-74 -119 -201 -208l27 -78q-52 -84 -147.5 -140.5t-218.5 -83.5l-72 121q209 44 276 124l-211 128q-31 20 -50 37q36 88 107 160q65 66 136 98q-35 22 -56 42q66 115 163.5 183.5t207.5 95.5l81 -110q-89 -14 -154 -52t-104 -92l178 -105zM458 329
q-51 33 -101 61q-48 -18 -93.5 -59.5t-74.5 -91.5q17 -10 103 -71q104 66 166 161z" />
    <glyph glyph-name="dieresis" unicode="&#xa8;" horiz-adv-x="355" 
d="M151 625q-33 0 -56 23.5t-23 56.5t23 56t56 23t56 -23t23 -56t-23 -56.5t-56 -23.5zM351 552q-23 23 -23 56t23.5 56.5t56.5 23.5t56 -23.5t23 -56.5t-23 -56t-56 -23t-57 23z" />
    <glyph glyph-name="copyright" unicode="&#xa9;" horiz-adv-x="1202" 
d="M190 -44q-105 118 -105 290q0 84 26.5 166.5t78.5 151.5l118 -44q-45 -57 -71 -133t-26 -143.5t17.5 -121t53.5 -94.5q81 -89 228 -89q78 0 154.5 34.5t138 94.5t99.5 141t38 175q0 122 -85 198q-130 117 -383 55q-87 -21 -162 -57l-35 98q112 63 268 84q151 21 269 -22
q158 -57 220 -199q31 -70 31 -152q0 -121 -47.5 -223.5t-125.5 -177.5t-177.5 -117.5t-205 -42.5t-185 35t-132.5 93zM448 171q135 16 268 49l22 -103q-88 -31 -142 -42q-87 -18 -194 -30l-99 94q55 234 231 382q60 51 136 83l143 -104q-16 -62 -63 -141q-13 -22 -26 -40
l-93 54q36 65 44.5 87.5t13.5 40.5q-91 -44 -161 -139q-63 -89 -80 -191z" />
    <glyph glyph-name="ordfeminine" unicode="&#xaa;" horiz-adv-x="612" 
d="M333 434q-57 -42 -135 -66l-95 87q0 128 73 223q79 102 211 113l49 -75q6 9 40 48l74 -59q-76 -101 -128 -214q51 16 97.5 37.5t60.5 29.5l17 -84q-50 -36 -118 -68.5t-86 -38.5zM215 478q81 21 121 72q34 46 51 134q-127 -26 -161 -135q-10 -34 -11 -71z" />
    <glyph glyph-name="guillemotleft" unicode="&#xab;" horiz-adv-x="745" 
d="M510 90q-70 79 -158 218l57 100q93 55 220 97l50 -87q-119 -58 -189 -103q44 -84 98 -166zM222 116q-70 79 -158 218l57 100q93 55 220 97l50 -87q-119 -58 -189 -103q44 -84 98 -166z" />
    <glyph glyph-name="logicalnot" unicode="&#xac;" horiz-adv-x="609" 
d="M479 292q-62 -155 -94 -226l-116 51q29 56 52 109q-136 52 -266 84l46 114q192 -50 378 -132z" />
    <glyph glyph-name="uni00AD" unicode="&#xad;" horiz-adv-x="833" 
 />
    <glyph glyph-name="registered" unicode="&#xae;" horiz-adv-x="1203" 
d="M190 -44q-105 118 -105 290q0 84 26.5 166.5t78.5 151.5l118 -44q-45 -57 -71 -133t-26 -143.5t17.5 -121t53.5 -94.5q81 -89 228 -89q78 0 154.5 34.5t138 94.5t99.5 141t38 175q0 122 -85 198q-130 117 -383 55q-87 -21 -162 -57l-35 98q112 63 268 84q151 21 269 -22
q158 -57 220 -199q31 -70 31 -152q0 -121 -47.5 -223.5t-125.5 -177.5t-177.5 -117.5t-205 -42.5t-185 35t-132.5 93zM842 381q-70 -97 -228 -161l89 -129l-115 -68l-112 203q-52 -91 -96 -195l-93 85q50 110 87 171q65 108 127 182q-49 7 -77 7l35 101q197 -9 326 -67z
M510 284q89 36 164 90q24 17 43 35q-73 35 -177 54l62 -51q-45 -58 -92 -128z" />
    <glyph glyph-name="macron" unicode="&#xaf;" horiz-adv-x="355" 
d="M387 608q-153 69 -326 112l42 114q164 -41 331 -114z" />
    <glyph glyph-name="degree" unicode="&#xb0;" horiz-adv-x="371" 
d="M128 482q-34 34 -34 83.5t33.5 83t84.5 33.5q48 0 82 -34t34 -84q0 -48 -34 -82t-83 -34t-83 34zM177 531.5q14 -13.5 33.5 -13.5t33 13.5t13.5 33t-13.5 33.5t-33 14t-33.5 -14t-14 -33.5t14 -33z" />
    <glyph glyph-name="plusminus" unicode="&#xb1;" horiz-adv-x="609" 
d="M170 194q16 53 43 132q-65 21 -133 38l45 114q48 -13 130 -39q35 91 55 133l111 -45q-23 -52 -52 -127q110 -43 134 -54l-45 -111q-54 23 -131 52q-31 -92 -42 -133zM355 -71q-193 83 -378 129l46 114q192 -50 378 -132z" />
    <glyph glyph-name="twosuperior" unicode="&#xb2;" horiz-adv-x="434" 
d="M338 688q-73 21 -155 14l44 91q112 14 208 -33l33 -105q-53 -66 -127 -102q-31 -15 -61 -27.5t-61 -31.5q64 -21 158 -33l-49 -103q-80 8 -182 41q-28 9 -50 18l-32 108q54 45 149 91q36 18 68 34.5t57 37.5z" />
    <glyph glyph-name="threesuperior" unicode="&#xb3;" horiz-adv-x="437" 
d="M392 456q-108 -117 -273 -93q-27 4 -54 13l-20 100q148 -39 221 20q-63 39 -137 62l44 78q109 0 175 47q-74 27 -166 19l45 92q10 2 21 2h23q95 0 166 -40l31 -108q-74 -62 -152 -83q20 -8 49 -24z" />
    <glyph glyph-name="acute" unicode="&#xb4;" horiz-adv-x="355" 
d="M400 723q-89 -83 -236 -184l-75 77q109 84 214 201z" />
    <glyph glyph-name="mu" unicode="&#xb5;" horiz-adv-x="691" 
d="M399 133q55 15 138 52l28 -110q-133 -77 -201 -98l-80 89q-49 -45 -82.5 -63t-61.5 -30l-58 49q-35 -102 -69 -227l-108 80q56 193 107 311q82 193 182 354l104 -79q-111 -172 -180 -343q109 28 198 141q70 142 134 232l106 -83q-93 -140 -153 -273z" />
    <glyph glyph-name="paragraph" unicode="&#xb6;" horiz-adv-x="768" 
d="M783 466q-55 26 -133 58q-106 -160 -205.5 -334t-186.5 -375l-114 102q72 157 166 323q-149 145 -216 354l140 153q76 8 159 -2t141 -27q109 -32 245 -114zM514 573q-118 34 -233 34h-17q-9 0 -18 -1q45 -129 140 -238q90 147 128 205z" />
    <glyph glyph-name="periodcentered" unicode="&#xb7;" horiz-adv-x="380" 
d="M85 373q27 27 66 27t66 -27t27 -66q0 -60 -57 -86q-56 -24 -102 20q-27 26 -27 65.5t27 66.5z" />
    <glyph glyph-name="cedilla" unicode="&#xb8;" horiz-adv-x="355" 
d="M81 -104q-20 24 -48 46l86 116l98 4l-69 -100q25 -19 74 -66l-35 -75q-100 -30 -248 -35l-14 81q89 9 156 29z" />
    <glyph glyph-name="onesuperior" unicode="&#xb9;" horiz-adv-x="335" 
d="M104 707q103 54 198 88l83 -86q-117 -166 -207 -344l-94 84q51 92 133 210q-41 -18 -79 -38z" />
    <glyph glyph-name="ordmasculine" unicode="&#xba;" horiz-adv-x="519" 
d="M121 457q0 67 31 145q39 94 124 144q61 35 124 45l123 -103q-20 -134 -99 -221q-72 -76 -195 -99zM235 480q72 17 110 62q39 47 59 109q6 21 6 39q-35 -2 -76 -30q-36 -25 -60 -63q-34 -50 -39 -117z" />
    <glyph glyph-name="guillemotright" unicode="&#xbb;" horiz-adv-x="781" 
d="M232 513q91 -103 159 -211l-57 -100q-107 -62 -221 -104l-50 87q111 56 188 109q-27 52 -96 160zM520 487q91 -103 159 -211l-57 -100q-107 -62 -221 -104l-50 87q111 56 188 109q-27 52 -96 160z" />
    <glyph glyph-name="onequarter" unicode="&#xbc;" horiz-adv-x="904" 
d="M95 707q103 54 198 88l83 -86q-117 -166 -207 -344l-94 84q51 92 133 210q-41 -18 -79 -38zM25 67q245 263 459 459q76 71 160 145l59 -68q-191 -168 -286 -263q-167 -165 -325 -345zM524 168q72 -16 76 -17q54 88 125 178l76 -64q-47 -62 -96 -143l61 -21l-42 -89
l-34 10t-35 10q-28 -53 -61 -128l-84 75q18 44 37 81q-41 9 -135 27l-12 88q75 107 186 193l76 -65q-79 -65 -138 -135z" />
    <glyph glyph-name="onehalf" unicode="&#xbd;" horiz-adv-x="895" 
d="M25 67q245 263 459 459q76 71 160 145l59 -68q-191 -168 -286 -263q-167 -165 -325 -345zM96 707q103 54 198 88l83 -86q-117 -166 -207 -344l-94 84q51 92 133 210q-41 -18 -79 -38zM662 239q-73 21 -155 14l44 91q112 14 208 -33l33 -105q-53 -66 -127 -102
q-31 -15 -61 -27.5t-61 -31.5q64 -21 158 -33l-49 -103q-80 8 -182 41q-28 9 -50 18l-32 108q54 45 149 91q36 18 68 34.5t57 37.5z" />
    <glyph glyph-name="threequarters" unicode="&#xbe;" horiz-adv-x="1026" 
d="M410 456q-108 -117 -273 -93q-27 4 -54 13l-20 100q148 -39 221 20q-63 39 -137 62l44 78q109 0 175 47q-74 27 -166 19l45 92q10 2 21 2h23q95 0 166 -40l31 -108q-74 -62 -152 -83q20 -8 49 -24zM142 67q245 263 458 459q77 71 161 145l59 -68q-191 -168 -286 -263
q-167 -165 -325 -345zM646 167q36 -6 76 -16q54 88 125 178l75 -64q-47 -62 -96 -143l61 -21l-41 -89l-70 21q-26 -49 -61 -129l-83 75q18 44 37 81q-41 9 -135 27l-13 88q79 110 186 193l77 -65q-76 -62 -138 -136z" />
    <glyph glyph-name="questiondown" unicode="&#xbf;" horiz-adv-x="590" 
d="M463.007 8.03906q-213.986 -96.9941 -380.977 -57.9961l-89.9941 138.991q11.999 113.993 86.9941 189.988q32.998 32.998 71.4961 58.9971q38.4971 25.998 75.4951 51.4961q36.998 25.499 68.4961 55.4971t49.4971 70.9951l117.992 -86.9941
q-28.998 -66.9961 -108.993 -125.992q-33.998 -23.999 -68.9961 -45.9971q-34.9971 -21.999 -64.9961 -45.9971q-66.9951 -55.9971 -78.9951 -130.992q107.994 -14.999 282.983 53.9961zM543.002 575.005q-26.998 -26.999 -65.9961 -26.999q-38.9971 0 -65.9961 26.999
q-26.998 26.998 -26.998 65.9961q0 59.9961 56.9971 85.9941q55.9961 23.999 101.993 -19.999q26.999 -25.998 26.999 -65.4951q0 -39.498 -26.999 -66.4961z" />
    <glyph glyph-name="Agrave" unicode="&#xc0;" horiz-adv-x="686" 
d="M202 256q-111 -142 -175 -285l-109 101q65 122 171 255l-60 34l86 108l65 -36q122 130 236 216l74 -67q15 62 24 122l125 -108q-59 -300 -239 -643l-114 104q32 58 46 85q-55 61 -130 114zM289 358q54 -41 99 -89q61 152 90 267q-88 -69 -189 -178zM629 666
q-95 100 -221 193l80 91q130 -113 213 -209z" />
    <glyph glyph-name="Aacute" unicode="&#xc1;" horiz-adv-x="686" 
d="M202 256q-111 -142 -175 -285l-109 101q65 122 171 255l-60 34l86 108l65 -36q122 130 236 216l74 -67q15 62 24 122l125 -108q-59 -300 -239 -643l-114 104q32 58 46 85q-55 61 -130 114zM289 358q54 -41 99 -89q61 152 90 267q-88 -69 -189 -178zM781 829
q-137 -62 -285 -101l-39 97q140 55 189.5 79.5t83.5 43.5z" />
    <glyph glyph-name="Acircumflex" unicode="&#xc2;" horiz-adv-x="686" 
d="M202 256q-111 -142 -175 -285l-109 101q65 122 171 255l-60 34l86 108l65 -36q122 130 236 216l74 -67q15 62 24 122l125 -108q-59 -300 -239 -643l-114 104q32 58 46 85q-55 61 -130 114zM289 358q54 -41 99 -89q61 152 90 267q-88 -69 -189 -178zM697 628
q-41 99 -85 176q-84 -23 -124 -40.5t-69 -30.5l-48 89q90 49 141.5 68t89.5 31l119 -61q41 -82 75 -207z" />
    <glyph glyph-name="Atilde" unicode="&#xc3;" horiz-adv-x="686" 
d="M202 256q-111 -142 -175 -285l-109 101q65 122 171 255l-60 34l86 108l65 -36q122 130 236 216l74 -67q15 62 24 122l125 -108q-59 -300 -239 -643l-114 104q32 58 46 85q-55 61 -130 114zM289 358q54 -41 99 -89q61 152 90 267q-88 -69 -189 -178zM681 670
q-24 7 -47.5 24.5t-45.5 37t-41.5 36t-35.5 20.5l-81 -5l-10 94q42 14 83 19.5t55 5.5q34 -10 93 -63q22 -19 42 -35.5t36 -20.5l80 5l11 -93q-42 -14 -84 -19.5t-55 -5.5z" />
    <glyph glyph-name="Adieresis" unicode="&#xc4;" horiz-adv-x="686" 
d="M202 256q-111 -142 -175 -285l-109 101q65 122 171 255l-60 34l86 108l65 -36q122 130 236 216l74 -67q15 62 24 122l125 -108q-59 -300 -239 -643l-114 104q32 58 46 85q-55 61 -130 114zM289 358q54 -41 99 -89q61 152 90 267q-88 -69 -189 -178zM417 769
q-23 23 -23 56t23.5 56.5t56.5 23.5t56 -23.5t23 -56.5t-23 -56t-56 -23t-57 23zM674 673q-23 23 -23 56t23 56t56 23t56 -23t23 -56t-23 -56t-56 -23t-56 23z" />
    <glyph glyph-name="Aring" unicode="&#xc5;" horiz-adv-x="686" 
d="M202 256q-111 -142 -175 -285l-109 101q65 122 171 255l-60 34l86 108l65 -36q122 130 236 216l74 -67q15 62 24 122l125 -108q-59 -300 -239 -643l-114 104q32 58 46 85q-55 61 -130 114zM289 358q54 -41 99 -89q61 152 90 267q-88 -69 -189 -178zM574 728
q-34 34 -34 83.5t33.5 83t84.5 33.5q50 0 82 -34q34 -35 34 -84q0 -47 -34 -82q-32 -34 -82 -34t-84 34zM623 777.5q14 -13.5 33.5 -13.5t33.5 13.5t14 33t-14 33.5t-33.5 14t-33.5 -14t-14 -33.5t14 -33z" />
    <glyph glyph-name="AE" unicode="&#xc6;" horiz-adv-x="951" 
d="M199 244q-103 -139 -164 -273l-117 101q69 126 164 248l-72 41l86 108q50 -28 74 -43q119 136 227 223l75 -69q15 61 21 115l99 -88l11 62q158 -20 344 -96l-54 -127q-142 60 -289 87q-16 -70 -38 -140q119 -31 225 -50l-44 -123q-115 23 -223 55q-26 -63 -57 -129
q152 -38 323 -54l-45 -128q-178 17 -337 60l-34 -65l-113 103q41 75 47 86q-52 55 -109 96zM280 344q42 -37 81 -82q64 147 96 263q-97 -89 -177 -181z" />
    <glyph glyph-name="Ccedilla" unicode="&#xc7;" horiz-adv-x="608" 
d="M38 -122q-20 24 -48 46l54 73l-96 89q45 196 160 355q131 179 318 258l190 -137q-26 -85 -94 -197q-19 -31 -36 -55l-116 64q68 117 91 197q-125 -62 -221 -190q-92 -125 -113 -257q158 11 288 75l39 -114q-126 -78 -291 -106q-20 -3 -38 -6l-20 -29q25 -19 74 -66
l-35 -75q-100 -30 -248 -35l-14 81q89 9 156 29z" />
    <glyph glyph-name="Egrave" unicode="&#xc8;" horiz-adv-x="607" 
d="M116 133q136 -30 305 -36l-41 -129q-151 3 -320 40l-114 104q70 161 208 359q39 57 76 102q-70 11 -115 11l47 124q281 -9 499 -102l-57 -146q-151 72 -343 108l86 -71q-48 -58 -87 -118q99 -22 197 -31l-45 -127q-153 27 -224 46q-38 -63 -72 -134zM547 672
q-95 100 -221 193l80 91q130 -113 213 -209z" />
    <glyph glyph-name="Eacute" unicode="&#xc9;" horiz-adv-x="607" 
d="M116 133q136 -30 305 -36l-41 -129q-151 3 -320 40l-114 104q70 161 208 359q39 57 76 102q-70 11 -115 11l47 124q281 -9 499 -102l-57 -146q-151 72 -343 108l86 -71q-48 -58 -87 -118q99 -22 197 -31l-45 -127q-153 27 -224 46q-38 -63 -72 -134zM726 818
q-137 -62 -285 -101l-39 97q140 55 189.5 79.5t83.5 43.5z" />
    <glyph glyph-name="Ecircumflex" unicode="&#xca;" horiz-adv-x="607" 
d="M116 133q136 -30 305 -36l-41 -129q-151 3 -320 40l-114 104q70 161 208 359q39 57 76 102q-70 11 -115 11l47 124q281 -9 499 -102l-57 -146q-151 72 -343 108l86 -71q-48 -58 -87 -118q99 -22 197 -31l-45 -127q-153 27 -224 46q-38 -63 -72 -134zM604 663
q-41 99 -85 176q-84 -23 -124 -40.5t-69 -30.5l-48 89q90 49 141.5 68t89.5 31l119 -61q41 -82 75 -207z" />
    <glyph glyph-name="Edieresis" unicode="&#xcb;" horiz-adv-x="607" 
d="M116 133q136 -30 305 -36l-41 -129q-151 3 -320 40l-114 104q70 161 208 359q39 57 76 102q-70 11 -115 11l47 124q281 -9 499 -102l-57 -146q-151 72 -343 108l86 -71q-48 -58 -87 -118q99 -22 197 -31l-45 -127q-153 27 -224 46q-38 -63 -72 -134zM336 787
q-23 23 -23 56t23.5 56.5t56.5 23.5t56 -23.5t23 -56.5t-23 -56t-56 -23t-57 23zM593 691q-23 23 -23 56t23 56t56 23t56 -23t23 -56t-23 -56t-56 -23t-56 23z" />
    <glyph glyph-name="Igrave" unicode="&#xcc;" horiz-adv-x="360" 
d="M-63 77q147 331 358 612l102 -104q-102 -141 -167 -258q-115 -208 -178 -356zM450 672q-95 100 -221 193l80 91q130 -113 213 -209z" />
    <glyph glyph-name="Iacute" unicode="&#xcd;" horiz-adv-x="360" 
d="M-63 77q147 331 358 612l102 -104q-102 -141 -167 -258q-115 -208 -178 -356zM705 809q-137 -62 -285 -101l-39 97q140 55 189.5 79.5t83.5 43.5z" />
    <glyph glyph-name="Icircumflex" unicode="&#xce;" horiz-adv-x="360" 
d="M-63 77q147 331 358 612l102 -104q-102 -141 -167 -258q-115 -208 -178 -356zM507 628q-41 99 -85 176q-84 -23 -124 -40.5t-69 -30.5l-48 89q90 49 141.5 68t89.5 31l119 -61q41 -82 75 -207z" />
    <glyph glyph-name="Idieresis" unicode="&#xcf;" horiz-adv-x="360" 
d="M-63 77q147 331 358 612l102 -104q-102 -141 -167 -258q-115 -208 -178 -356zM216 769q-23 23 -23 56t23.5 56.5t56.5 23.5t56 -23.5t23 -56.5t-23 -56t-56 -23t-57 23zM473 673q-23 23 -23 56t23 56t56 23t56 -23t23 -56t-23 -56t-56 -23t-56 23z" />
    <glyph glyph-name="Eth" unicode="&#xd0;" horiz-adv-x="692" 
d="M-57 92q53 120 111 225q-41 10 -83 19l42 112q40 -8 108 -25q43 65 106 141q-77 11 -125 11l43 119q120 -5 231 -23.5t217 -64.5l59 -134q-48 -203 -213 -336q-152 -122 -368 -162zM119 123q136 39 241 134q111 100 146 233q-107 45 -250 69l88 -72q-43 -54 -80 -109
q33 -12 71 -27l-47 -112q-47 19 -91 34q-42 -70 -78 -150z" />
    <glyph glyph-name="Ntilde" unicode="&#xd1;" horiz-adv-x="727" 
d="M-70 77q57 137 165 325q97 170 198 302l99 -97q2 -167 18 -351q107 225 241 409l102 -94q-164 -229 -313 -581l-133 -27q-32 236 -42 450q-134 -225 -219 -442zM634 699q-24 7 -47.5 24.5t-45.5 37t-41.5 36t-35.5 20.5l-81 -5l-10 94q42 14 83 19.5t55 5.5
q34 -10 93 -63q22 -19 42 -35.5t36 -20.5l80 5l11 -93q-42 -14 -84 -19.5t-55 -5.5z" />
    <glyph glyph-name="Ograve" unicode="&#xd2;" horiz-adv-x="686" 
d="M607 386q-106 95 -198 151q-102 -53 -181 -180q-82 -131 -92 -266q157 43 268 213q37 58 65 132l138 -50q-67 -188 -175 -291q-117 -112 -302 -147l-148 136q29 308 253 496q78 66 183 115q133 -68 234 -174zM585 659q-95 100 -221 193l80 91q130 -113 213 -209z" />
    <glyph glyph-name="Oacute" unicode="&#xd3;" horiz-adv-x="686" 
d="M607 386q-106 95 -198 151q-102 -53 -181 -180q-82 -131 -92 -266q157 43 268 213q37 58 65 132l138 -50q-67 -188 -175 -291q-117 -112 -302 -147l-148 136q29 308 253 496q78 66 183 115q133 -68 234 -174zM854 783q-137 -62 -285 -101l-39 97q140 55 189.5 79.5
t83.5 43.5z" />
    <glyph glyph-name="Ocircumflex" unicode="&#xd4;" horiz-adv-x="686" 
d="M607 386q-106 95 -198 151q-102 -53 -181 -180q-82 -131 -92 -266q157 43 268 213q37 58 65 132l138 -50q-67 -188 -175 -291q-117 -112 -302 -147l-148 136q29 308 253 496q78 66 183 115q133 -68 234 -174zM676 639q-41 99 -85 176q-84 -23 -124 -40.5t-69 -30.5
l-48 89q90 49 141.5 68t89.5 31l119 -61q41 -82 75 -207z" />
    <glyph glyph-name="Otilde" unicode="&#xd5;" horiz-adv-x="686" 
d="M607 386q-106 95 -198 151q-102 -53 -181 -180q-82 -131 -92 -266q157 43 268 213q37 58 65 132l138 -50q-67 -188 -175 -291q-117 -112 -302 -147l-148 136q29 308 253 496q78 66 183 115q133 -68 234 -174zM641 671q-24 7 -47.5 24.5t-45.5 37t-41.5 36t-35.5 20.5
l-81 -5l-10 94q42 14 83 19.5t55 5.5q34 -10 93 -63q22 -19 42 -35.5t36 -20.5l80 5l11 -93q-42 -14 -84 -19.5t-55 -5.5z" />
    <glyph glyph-name="Odieresis" unicode="&#xd6;" horiz-adv-x="686" 
d="M607 386q-106 95 -198 151q-102 -53 -181 -180q-82 -131 -92 -266q157 43 268 213q37 58 65 132l138 -50q-67 -188 -175 -291q-117 -112 -302 -147l-148 136q29 308 253 496q78 66 183 115q133 -68 234 -174zM383 779q-23 23 -23 56t23.5 56.5t56.5 23.5t56 -23.5
t23 -56.5t-23 -56t-56 -23t-57 23zM640 683q-23 23 -23 56t23 56t56 23t56 -23t23 -56t-23 -56t-56 -23t-56 23z" />
    <glyph glyph-name="multiply" unicode="&#xd7;" horiz-adv-x="609" 
d="M237 205q-118 -69 -135 -79l-59 107q68 43 137 80q-33 65 -63 133l108 51q12 -29 28 -61l33 -66q125 63 146 72l53 -107q-30 -13 -141 -72q58 -100 82 -133l-108 -57q-31 45 -81 132z" />
    <glyph glyph-name="Oslash" unicode="&#xd8;" horiz-adv-x="695" 
d="M-81 -39q58 56 93 95l-30 28q29 308 253 496q78 66 183 115q69 -34 125 -77l94 101l71 -67l-89 -98l33 -33l-45 -135q-67 -188 -175 -291q-117 -112 -302 -147l-45 41q-52 -52 -96 -98zM607 386q-106 95 -198 151q-102 -53 -181 -180q-82 -131 -92 -266q157 43 268 213
q37 58 65 132z" />
    <glyph glyph-name="Ugrave" unicode="&#xd9;" horiz-adv-x="680" 
d="M273 57q-73 -38 -197 -82l-126 121q124 327 333 599l108 -107q-108 -131 -211 -332q-30 -60 -54 -116q120 27 202 60v-2q159 328 269 462l110 -107q-156 -188 -321 -603zM528 672q-95 100 -221 193l80 91q130 -113 213 -209z" />
    <glyph glyph-name="Uacute" unicode="&#xda;" horiz-adv-x="680" 
d="M273 57q-73 -38 -197 -82l-126 121q124 327 333 599l108 -107q-108 -131 -211 -332q-30 -60 -54 -116q120 27 202 60v-2q159 328 269 462l110 -107q-156 -188 -321 -603zM763 809q-137 -62 -285 -101l-39 97q140 55 189.5 79.5t83.5 43.5z" />
    <glyph glyph-name="Ucircumflex" unicode="&#xdb;" horiz-adv-x="680" 
d="M273 57q-73 -38 -197 -82l-126 121q124 327 333 599l108 -107q-108 -131 -211 -332q-30 -60 -54 -116q120 27 202 60v-2q159 328 269 462l110 -107q-156 -188 -321 -603zM665 648q-41 99 -85 176q-84 -23 -124 -40.5t-69 -30.5l-48 89q90 49 141.5 68t89.5 31l119 -61
q41 -82 75 -207z" />
    <glyph glyph-name="Udieresis" unicode="&#xdc;" horiz-adv-x="680" 
d="M273 57q-73 -38 -197 -82l-126 121q124 327 333 599l108 -107q-108 -131 -211 -332q-30 -60 -54 -116q120 27 202 60v-2q159 328 269 462l110 -107q-156 -188 -321 -603zM400 779q-23 23 -23 56t23.5 56.5t56.5 23.5t56 -23.5t23 -56.5t-23 -56t-56 -23t-57 23zM657 683
q-23 23 -23 56t23 56t56 23t56 -23t23 -56t-23 -56t-56 -23t-56 23z" />
    <glyph glyph-name="Yacute" unicode="&#xdd;" horiz-adv-x="566" 
d="M245 353q158 138 278 310l112 -107q-186 -236 -390 -360q-55 -85 -108 -237l-124 107q42 105 60.5 138.5t38.5 65.5q-23 200 37 461l134 -123q-34 -133 -38 -255zM671 809q-137 -62 -285 -101l-39 97q140 55 189.5 79.5t83.5 43.5z" />
    <glyph glyph-name="Thorn" unicode="&#xde;" horiz-adv-x="667" 
d="M-66 78q114 253 245 457q49 76 106 155l109 -96q-29 -40 -51 -74q69 -29 165 -85l78 -175q-116 -72 -181 -100q-104 -43 -211 -64l-49 80q-53 -106 -95 -205zM430 328q-64 40 -159 80q-48 -81 -99 -179q147 31 258 99z" />
    <glyph glyph-name="germandbls" unicode="&#xdf;" horiz-adv-x="679" 
d="M461 495q-63 34 -157 66q-119 -192 -218 -435q-33 -82 -55 -155l-118 78q44 146 185 411q40 74 77 138q69 45 161 74q145 -39 254 -113l16 -128q-130 -54 -188 -118q21 -32 60.5 -67t81.5 -75q75 35 124 61l22 -101q-169 -119 -391 -166q-96 56 -162 122l78 94
q53 -51 116 -88q40 10 86 26l-106 103q-65 64 -82 90q63 95 216 183z" />
    <glyph glyph-name="agrave" unicode="&#xe0;" horiz-adv-x="616" 
d="M272 63q-79 -62 -182 -90l-124 115q0 79 24 155t71 137t116.5 101.5t160.5 48.5l66 -101q12 19 51 66l98 -84q-99 -129 -164 -276l-3 -2q58 15 136 51.5t99 47.5l22 -101q-59 -43 -196 -111q-54 -27 -98 -43zM106 117q107 29 195 142q26 57 39 142q-103 -10 -169 -91
q-65 -80 -65 -193zM429 544q-58 135 -138 253l113 62q66 -120 123 -272z" />
    <glyph glyph-name="aacute" unicode="&#xe1;" horiz-adv-x="616" 
d="M272 63q-79 -62 -182 -90l-124 115q0 79 24 155t71 137t116.5 101.5t160.5 48.5l66 -101q12 19 51 66l98 -84q-99 -129 -164 -276l-3 -2q58 15 136 51.5t99 47.5l22 -101q-59 -43 -196 -111q-54 -27 -98 -43zM106 117q107 29 195 142q26 57 39 142q-103 -10 -169 -91
q-65 -80 -65 -193zM680 723q-89 -83 -236 -184l-75 77q109 84 214 201z" />
    <glyph glyph-name="acircumflex" unicode="&#xe2;" horiz-adv-x="616" 
d="M272 63q-79 -62 -182 -90l-124 115q0 79 24 155t71 137t116.5 101.5t160.5 48.5l66 -101q12 19 51 66l98 -84q-99 -129 -164 -276l-3 -2q58 15 136 51.5t99 47.5l22 -101q-59 -43 -196 -111q-54 -27 -98 -43zM106 117q107 29 195 142q26 57 39 142q-103 -10 -169 -91
q-65 -80 -65 -193zM482 675q-116 -39 -190 -77l-48 89q112 61 231 108l119 -61q27 -100 34.5 -141.5t13.5 -74.5l-99 -25q-29 109 -61 182z" />
    <glyph glyph-name="atilde" unicode="&#xe3;" horiz-adv-x="616" 
d="M272 63q-79 -62 -182 -90l-124 115q0 79 24 155t71 137t116.5 101.5t160.5 48.5l66 -101q12 19 51 66l98 -84q-99 -129 -164 -276l-3 -2q58 15 136 51.5t99 47.5l22 -101q-59 -43 -196 -111q-54 -27 -98 -43zM106 117q107 29 195 142q26 57 39 142q-103 -10 -169 -91
q-65 -80 -65 -193zM675 549q-78 -24 -140 -24q-24 7 -46 24.5t-43.5 37t-41.5 36t-39 20.5l-81 -6l-10 95q37 12 80.5 18t57.5 6q24 -7 46.5 -25t44 -37.5t41.5 -36t39 -20.5l80 6z" />
    <glyph glyph-name="adieresis" unicode="&#xe4;" horiz-adv-x="616" 
d="M272 63q-79 -62 -182 -90l-124 115q0 79 24 155t71 137t116.5 101.5t160.5 48.5l66 -101q12 19 51 66l98 -84q-99 -129 -164 -276l-3 -2q58 15 136 51.5t99 47.5l22 -101q-59 -43 -196 -111q-54 -27 -98 -43zM106 117q107 29 195 142q26 57 39 142q-103 -10 -169 -91
q-65 -80 -65 -193zM345 625q-33 0 -56 23.5t-23 56.5t23 56t56 23t56 -23t23 -56t-23 -56.5t-56 -23.5zM545 552q-23 23 -23 56t23.5 56.5t56.5 23.5t56 -23.5t23 -56.5t-23 -56t-56 -23t-57 23z" />
    <glyph glyph-name="aring" unicode="&#xe5;" horiz-adv-x="616" 
d="M272 63q-79 -62 -182 -90l-124 115q0 79 24 155t71 137t116.5 101.5t160.5 48.5l66 -101q12 19 51 66l98 -84q-99 -129 -164 -276l-3 -2q58 15 136 51.5t99 47.5l22 -101q-59 -43 -196 -111q-54 -27 -98 -43zM106 117q107 29 195 142q26 57 39 142q-103 -10 -169 -91
q-65 -80 -65 -193zM423 589q-34 34 -34 83.5t33.5 83t84.5 33.5q48 0 82 -34t34 -84q0 -48 -34 -82t-83 -34t-83 34zM472 638.5q14 -13.5 33.5 -13.5t33 13.5t13.5 33t-13.5 33.5t-33 14t-33.5 -14t-14 -33.5t14 -33z" />
    <glyph glyph-name="ae" unicode="&#xe6;" horiz-adv-x="839" 
d="M272 86q-74 -70 -182 -113l-124 115q0 79 24 155t71 137t116.5 101.5t160.5 48.5l41 -63q28 67 45 95l75 -79q52 32 101 48l169 -140q-25 -104 -95 -151t-167 -47q-56 0 -83 7q-16 -39 -20 -97q173 10 336 77q55 22 104 52l22 -101q-93 -59 -218 -104q-132 -48 -253 -54z
M466 290q58 0 105 32q55 38 55 106q-51 -24 -94 -60.5t-66 -77.5zM106 117q118 32 204 142q17 58 30 142q-103 -10 -169 -91q-65 -80 -65 -193z" />
    <glyph glyph-name="ccedilla" unicode="&#xe7;" horiz-adv-x="531" 
d="M68 -113q-20 24 -48 46l47 64l-99 91q0 71 9 110q39 165 191 266q68 45 138 67l160 -119q-5 -23 -28 -73q-38 -84 -60 -115l-126 80q54 68 68 114q-96 -41 -156 -132q-54 -82 -54 -183q245 32 426 129l22 -101q-157 -99 -342 -140q-32 -8 -63 -12l-18 -26q25 -19 74 -66
l-35 -75q-100 -30 -248 -35l-14 81q89 9 156 29z" />
    <glyph glyph-name="egrave" unicode="&#xe8;" horiz-adv-x="538" 
d="M201 193q-47 0 -74 7q-16 -39 -20 -97q172 10 332 77q54 22 104 52l21 -101q-93 -59 -220 -104q-135 -48 -255 -54l-124 115q0 138 75 252q54 79 122.5 125t131.5 66l169 -140q-25 -104 -95 -151t-167 -47zM169 290q58 0 101 32q50 38 50 106q-101 -55 -151 -138z
M423 544q-58 135 -138 253l113 62q66 -120 123 -272z" />
    <glyph glyph-name="eacute" unicode="&#xe9;" horiz-adv-x="538" 
d="M201 193q-47 0 -74 7q-16 -39 -20 -97q172 10 332 77q54 22 104 52l21 -101q-93 -59 -220 -104q-135 -48 -255 -54l-124 115q0 138 75 252q54 79 122.5 125t131.5 66l169 -140q-25 -104 -95 -151t-167 -47zM169 290q58 0 101 32q50 38 50 106q-101 -55 -151 -138z
M701 723q-89 -83 -236 -184l-75 77q109 84 214 201z" />
    <glyph glyph-name="ecircumflex" unicode="&#xea;" horiz-adv-x="538" 
d="M201 193q-47 0 -74 7q-16 -39 -20 -97q172 10 332 77q54 22 104 52l21 -101q-93 -59 -220 -104q-135 -48 -255 -54l-124 115q0 138 75 252q54 79 122.5 125t131.5 66l169 -140q-25 -104 -95 -151t-167 -47zM169 290q58 0 101 32q50 38 50 106q-101 -55 -151 -138z
M437 675q-116 -39 -190 -77l-48 89q112 61 231 108l119 -61q27 -100 34.5 -141.5t13.5 -74.5l-99 -25q-29 109 -61 182z" />
    <glyph glyph-name="edieresis" unicode="&#xeb;" horiz-adv-x="538" 
d="M201 193q-47 0 -74 7q-16 -39 -20 -97q172 10 332 77q54 22 104 52l21 -101q-93 -59 -220 -104q-135 -48 -255 -54l-124 115q0 138 75 252q54 79 122.5 125t131.5 66l169 -140q-25 -104 -95 -151t-167 -47zM169 290q58 0 101 32q50 38 50 106q-101 -55 -151 -138z
M304 617q-33 0 -56 23.5t-23 56.5t23 56t56 23t56 -23t23 -56t-23 -56.5t-56 -23.5zM504 544q-23 23 -23 56t23.5 56.5t56.5 23.5t56 -23.5t23 -56.5t-23 -56t-56 -23t-57 23z" />
    <glyph glyph-name="igrave" unicode="&#xec;" horiz-adv-x="332" 
d="M92 126q102 31 245 106l21 -101q-97 -63 -234 -123q-46 -20 -90 -35l-115 106q49 134 176 334q38 60 74 105l99 -73q-73 -100 -142 -241q-20 -42 -34 -78zM280 544q-58 135 -138 253l113 62q66 -120 123 -272z" />
    <glyph glyph-name="iacute" unicode="&#xed;" horiz-adv-x="332" 
d="M92 126q102 31 245 106l21 -101q-97 -63 -234 -123q-46 -20 -90 -35l-115 106q49 134 176 334q38 60 74 105l99 -73q-73 -100 -142 -241q-20 -42 -34 -78zM574 723q-89 -83 -236 -184l-75 77q109 84 214 201z" />
    <glyph glyph-name="icircumflex" unicode="&#xee;" horiz-adv-x="332" 
d="M92 126q102 31 245 106l21 -101q-97 -63 -234 -123q-46 -20 -90 -35l-115 106q49 134 176 334q38 60 74 105l99 -73q-73 -100 -142 -241q-20 -42 -34 -78zM313 675q-116 -39 -190 -77l-48 89q112 61 231 108l119 -61q27 -100 34.5 -141.5t13.5 -74.5l-99 -25
q-29 109 -61 182z" />
    <glyph glyph-name="idieresis" unicode="&#xef;" horiz-adv-x="332" 
d="M92 126q102 31 245 106l21 -101q-97 -63 -234 -123q-46 -20 -90 -35l-115 106q49 134 176 334q38 60 74 105l99 -73q-73 -100 -142 -241q-20 -42 -34 -78zM185 625q-33 0 -56 23.5t-23 56.5t23 56t56 23t56 -23t23 -56t-23 -56.5t-56 -23.5zM385 552q-23 23 -23 56
t23.5 56.5t56.5 23.5t56 -23.5t23 -56.5t-23 -56t-56 -23t-57 23z" />
    <glyph glyph-name="eth" unicode="&#xf0;" horiz-adv-x="581" 
d="M422 212q84 4 164 20l21 -101q-116 -49 -221 -73l-41 48q-42 -43 -105.5 -80t-148.5 -53l-142 119q8 94 53 186q16 33 37 60q42 54 92.5 85t117.5 51l91 -92q16 60 18 144q-44 -6 -91 -16l-15 109q50 10 101 16l-10 70l138 20q7 -41 12 -76q26 2 100 5l6 -109
q-97 -4 -100 -4q0 -186 -77 -329zM89 108q93 21 159 99q64 76 88 159q-109 -23 -174 -94q-60 -67 -73 -164z" />
    <glyph glyph-name="ntilde" unicode="&#xf1;" horiz-adv-x="629" 
d="M195 348q100 79 207 136l121 -95q-33 -142 -116 -256q100 34 227 99l21 -101q-41 -27 -125 -69q-144 -71 -199 -89l-124 88q60 72 100.5 142.5t52.5 123.5q-128 -60 -244 -140q-46 -110 -78 -214l-119 77q34 115 106 259q65 129 136 218l101 -73q-35 -47 -67 -106z
M637 549q-78 -24 -140 -24q-24 7 -46 24.5t-43.5 37t-41.5 36t-39 20.5l-81 -6l-10 95q37 12 80.5 18t57.5 6q24 -7 46.5 -25t44 -37.5t41.5 -36t39 -20.5l80 6z" />
    <glyph glyph-name="ograve" unicode="&#xf2;" horiz-adv-x="586" 
d="M361 113q-96 -111 -253 -140l-142 119q0 96 38 190q48 118 158 191q76 51 165 63l159 -136q-17 -108 -58 -188q72 4 163 20l22 -101q-130 -54 -204 -73zM100 109q114 26 190 141q32 49 46 94t15 72q-81 -11 -154 -86q-91 -93 -97 -221zM436 544q-58 135 -138 253l113 62
q66 -120 123 -272z" />
    <glyph glyph-name="oacute" unicode="&#xf3;" horiz-adv-x="586" 
d="M361 113q-96 -111 -253 -140l-142 119q0 96 38 190q48 118 158 191q76 51 165 63l159 -136q-17 -108 -58 -188q72 4 163 20l22 -101q-130 -54 -204 -73zM100 109q114 26 190 141q32 49 46 94t15 72q-81 -11 -154 -86q-91 -93 -97 -221zM731 723q-89 -83 -236 -184l-75 77
q109 84 214 201z" />
    <glyph glyph-name="ocircumflex" unicode="&#xf4;" horiz-adv-x="586" 
d="M361 113q-96 -111 -253 -140l-142 119q0 96 38 190q48 118 158 191q76 51 165 63l159 -136q-17 -108 -58 -188q72 4 163 20l22 -101q-130 -54 -204 -73zM100 109q114 26 190 141q32 49 46 94t15 72q-81 -11 -154 -86q-91 -93 -97 -221zM475 675q-116 -39 -190 -77l-48 89
q112 61 231 108l119 -61q27 -100 34.5 -141.5t13.5 -74.5l-99 -25q-29 109 -61 182z" />
    <glyph glyph-name="otilde" unicode="&#xf5;" horiz-adv-x="586" 
d="M361 113q-96 -111 -253 -140l-142 119q0 96 38 190q48 118 158 191q76 51 165 63l159 -136q-17 -108 -58 -188q72 4 163 20l22 -101q-130 -54 -204 -73zM100 109q114 26 190 141q32 49 46 94t15 72q-81 -11 -154 -86q-91 -93 -97 -221zM682 549q-78 -24 -140 -24
q-24 7 -46 24.5t-43.5 37t-41.5 36t-39 20.5l-81 -6l-10 95q37 12 80.5 18t57.5 6q24 -7 46.5 -25t44 -37.5t41.5 -36t39 -20.5l80 6z" />
    <glyph glyph-name="odieresis" unicode="&#xf6;" horiz-adv-x="586" 
d="M361 113q-96 -111 -253 -140l-142 119q0 96 38 190q48 118 158 191q76 51 165 63l159 -136q-17 -108 -58 -188q72 4 163 20l22 -101q-130 -54 -204 -73zM100 109q114 26 190 141q32 49 46 94t15 72q-81 -11 -154 -86q-91 -93 -97 -221zM352 625q-33 0 -56 23.5t-23 56.5
t23 56t56 23t56 -23t23 -56t-23 -56.5t-56 -23.5zM552 552q-23 23 -23 56t23.5 56.5t56.5 23.5t56 -23.5t23 -56.5t-23 -56t-56 -23t-57 23z" />
    <glyph glyph-name="divide" unicode="&#xf7;" horiz-adv-x="609" 
d="M284 443q-24 25 -24 60.5t24.5 60t59.5 24.5t59.5 -24.5t24.5 -60.5q0 -35 -24.5 -59.5t-59.5 -24.5t-60 24zM442 190q-193 83 -378 129l46 114q192 -50 378 -132zM149.5 65.5q-24.5 24.5 -24.5 60t24.5 60t59.5 24.5t59.5 -24.5t24.5 -60.5q0 -35 -24.5 -59.5
t-59.5 -24.5t-59.5 24.5z" />
    <glyph glyph-name="oslash" unicode="&#xf8;" horiz-adv-x="586" 
d="M-77 -22l76 86l-33 28q0 96 38 190q48 118 158 191q76 51 165 63l49 -42l69 86l66 -54q-17 -20 -71 -87l46 -39q-17 -108 -58 -188q72 4 163 20l22 -101q-130 -54 -204 -73l-48 55q-96 -111 -253 -140l-44 37l-77 -87zM100 109q114 26 190 141q32 49 46 94t15 72
q-81 -11 -154 -86q-91 -93 -97 -221z" />
    <glyph glyph-name="ugrave" unicode="&#xf9;" horiz-adv-x="600" 
d="M245 75q-63 -60 -162 -102l-133 115q14 113 70 223t144 229l103 -79q-140 -189 -177 -344q1 0 18.5 5.5t45.5 21.5q71 40 131 115q70 142 134 232l107 -83q-94 -138 -153 -273l-4 -2q64 17 139.5 52t96.5 47l21 -101q-62 -45 -195 -111q-54 -27 -98 -43zM334 544
q-58 135 -138 253l113 62q66 -120 123 -272z" />
    <glyph glyph-name="uacute" unicode="&#xfa;" horiz-adv-x="600" 
d="M245 75q-63 -60 -162 -102l-133 115q14 113 70 223t144 229l103 -79q-140 -189 -177 -344q1 0 18.5 5.5t45.5 21.5q71 40 131 115q70 142 134 232l107 -83q-94 -138 -153 -273l-4 -2q64 17 139.5 52t96.5 47l21 -101q-62 -45 -195 -111q-54 -27 -98 -43zM620 723
q-89 -83 -236 -184l-75 77q109 84 214 201z" />
    <glyph glyph-name="ucircumflex" unicode="&#xfb;" horiz-adv-x="600" 
d="M245 75q-63 -60 -162 -102l-133 115q14 113 70 223t144 229l103 -79q-140 -189 -177 -344q1 0 18.5 5.5t45.5 21.5q71 40 131 115q70 142 134 232l107 -83q-94 -138 -153 -273l-4 -2q64 17 139.5 52t96.5 47l21 -101q-62 -45 -195 -111q-54 -27 -98 -43zM446 675
q-116 -39 -190 -77l-48 89q112 61 231 108l119 -61q27 -100 34.5 -141.5t13.5 -74.5l-99 -25q-29 109 -61 182z" />
    <glyph glyph-name="udieresis" unicode="&#xfc;" horiz-adv-x="600" 
d="M245 75q-63 -60 -162 -102l-133 115q14 113 70 223t144 229l103 -79q-140 -189 -177 -344q1 0 18.5 5.5t45.5 21.5q71 40 131 115q70 142 134 232l107 -83q-94 -138 -153 -273l-4 -2q64 17 139.5 52t96.5 47l21 -101q-62 -45 -195 -111q-54 -27 -98 -43zM309 625
q-33 0 -56 23.5t-23 56.5t23 56t56 23t56 -23t23 -56t-23 -56.5t-56 -23.5zM509 552q-23 23 -23 56t23.5 56.5t56.5 23.5t56 -23.5t23 -56.5t-23 -56t-56 -23t-57 23z" />
    <glyph glyph-name="yacute" unicode="&#xfd;" horiz-adv-x="606" 
d="M384 147q162 47 227 85l22 -101q-80 -60 -179 -109q-35 -18 -61 -27l-49 54q-28 -127 -66 -203q-36 -70 -102 -140q-110 3 -241 35q-41 10 -75 22l-6 165q67 59 149 100l-58 42q9 132 137 340q40 65 88 130l104 -79q-175 -246 -189 -362q53 8 85 25q64 34 102 99
q86 172 154 268l106 -83q-98 -150 -148 -261zM-45 -145q92 -21 152 -23q65 55 102 173q-163 -66 -254 -150zM621 723q-89 -83 -236 -184l-75 77q109 84 214 201z" />
    <glyph glyph-name="thorn" unicode="&#xfe;" horiz-adv-x="611" 
d="M184 351q84 74 191 133l121 -95q-8 -80 -26 -138t-59 -100q113 38 205 81l21 -101q-127 -71 -354 -127q-70 -18 -141 -31l-97 89q-43 -101 -73.5 -193t-50.5 -153l-115 77q182 512 453 921l104 -77q-90 -132 -126.5 -195t-52.5 -91zM54 83q57 9 106 21.5t64.5 20
t37.5 28.5t40 49q40 64 50 134q-111 -58 -261 -171z" />
    <glyph glyph-name="ydieresis" unicode="&#xff;" horiz-adv-x="606" 
d="M384 147q162 47 227 85l22 -101q-80 -60 -179 -109q-35 -18 -61 -27l-49 54q-28 -127 -66 -203q-36 -70 -102 -140q-110 3 -241 35q-41 10 -75 22l-6 165q67 59 149 100l-58 42q9 132 137 340q40 65 88 130l104 -79q-175 -246 -189 -362q53 8 85 25q64 34 102 99
q86 172 154 268l106 -83q-98 -150 -148 -261zM-45 -145q92 -21 152 -23q65 55 102 173q-163 -66 -254 -150zM305 625q-33 0 -56 23.5t-23 56.5t23 56t56 23t56 -23t23 -56t-23 -56.5t-56 -23.5zM505 552q-23 23 -23 56t23.5 56.5t56.5 23.5t56 -23.5t23 -56.5t-23 -56
t-56 -23t-57 23z" />
    <glyph glyph-name="hbar" unicode="&#x127;" horiz-adv-x="629" 
d="M188 349q93 71 214 135l121 -95q-33 -142 -116 -256q100 34 227 99l21 -101q-41 -27 -125 -69q-144 -71 -199 -89l-124 88q60 72 100.5 142.5t52.5 123.5q-131 -65 -172.5 -92t-74.5 -50q-49 -121 -75 -212l-119 77q33 113 145 338q47 95 91 173q-32 16 -64 30l48 86
q32 -13 66 -29q23 37 42 66l102 -77q-16 -25 -31 -51q31 -19 61 -39l-54 -84q-28 19 -57 37q-1 -2 -21.5 -39t-58.5 -112z" />
    <glyph glyph-name="Itilde" unicode="&#x128;" horiz-adv-x="360" 
d="M-63 77q147 331 358 612l102 -104q-102 -141 -167 -258q-115 -208 -178 -356zM488 661q-24 7 -47.5 24.5t-45.5 37t-41.5 36t-35.5 20.5l-81 -5l-10 94q42 14 83 19.5t55 5.5q34 -10 93 -63q22 -19 42 -35.5t36 -20.5l80 5l11 -93q-42 -14 -84 -19.5t-55 -5.5z" />
    <glyph glyph-name="itilde" unicode="&#x129;" horiz-adv-x="332" 
d="M92 126q102 31 245 106l21 -101q-97 -63 -234 -123q-46 -20 -90 -35l-115 106q49 134 176 334q38 60 74 105l99 -73q-73 -100 -142 -241q-20 -42 -34 -78zM506 549q-78 -24 -140 -24q-24 7 -46 24.5t-43.5 37t-41.5 36t-39 20.5l-81 -6l-10 95q37 12 80.5 18t57.5 6
q24 -7 46.5 -25t44 -37.5t41.5 -36t39 -20.5l80 6z" />
    <glyph glyph-name="dotlessi" unicode="&#x131;" horiz-adv-x="332" 
d="M92 126q102 31 245 106l21 -101q-97 -63 -234 -123q-46 -20 -90 -35l-115 106q49 134 176 334q38 60 74 105l99 -73q-73 -100 -142 -241q-20 -42 -34 -78z" />
    <glyph glyph-name="IJ" unicode="&#x132;" horiz-adv-x="854" 
d="M-63 77q147 331 358 612l102 -104q-102 -141 -167 -258q-115 -208 -178 -356zM337 -29q-43 130 -55 248l132 26q12 -76 34 -153q110 247 242 456q47 75 97 141l104 -104q-120 -166 -257 -439q-41 -81 -71 -148z" />
    <glyph glyph-name="ij" unicode="&#x133;" horiz-adv-x="663" 
d="M551 624q0 34 23.5 57.5t57.5 23.5t57.5 -23.5t23.5 -57.5t-23.5 -57.5t-57.5 -23.5t-57.5 23.5t-23.5 57.5zM243 566q-23 24 -23 58t23.5 57.5t57.5 23.5t57.5 -23.5t23.5 -57.5t-23.5 -57.5t-57.5 -23.5t-58 23zM234 60q-115 -58 -200 -87l-115 106q49 134 176 334
q38 60 74 105l99 -73q-73 -100 -142 -241q-20 -42 -34 -78q99 31 217 91q87 165 191 301l99 -73q-120 -165 -185 -321q74 22 135.5 50.5t118.5 57.5l21 -101q-90 -59 -219 -115q-43 -19 -87 -34l-27 26q-56 -121 -113 -302l-116 73q38 121 107 281z" />
    <glyph glyph-name="Jcircumflex" unicode="&#x134;" horiz-adv-x="494" 
d="M-23 -29q-43 130 -55 248l132 26q12 -76 34 -153q110 247 242 456q47 75 97 141l104 -104q-120 -166 -257 -439q-41 -81 -71 -148zM631 628q-41 99 -85 176q-84 -23 -124 -40.5t-69 -30.5l-48 89q90 49 141.5 68t89.5 31l119 -61q41 -82 75 -207z" />
    <glyph glyph-name="jcircumflex" unicode="&#x135;" horiz-adv-x="332" 
d="M25 8q-56 -121 -113 -302l-116 73q123 381 318 664q29 42 55 75l99 -73q-120 -165 -185 -321q74 22 135.5 50.5t118.5 57.5l21 -101q-90 -59 -218 -115q-44 -19 -88 -34zM318 675q-116 -39 -190 -77l-48 89q112 61 231 108l119 -61q27 -100 34.5 -141.5t13.5 -74.5
l-99 -25q-29 109 -61 182z" />
    <glyph glyph-name="Kcommaaccent" unicode="&#x136;" horiz-adv-x="674" 
d="M346 251q52 -91 152 -223l-134 -86q-95 137 -178 314q-62 -104 -153 -285l-110 102q153 291 287 484q46 66 96 132l103 -106q-94 -117 -175 -249q231 141 391 291l93 -108q-93 -89 -160 -136q-97 -68 -212 -130zM23 -239q61 85 123 232l122 -73q-64 -118 -147 -213z" />
    <glyph glyph-name="kcommaaccent" unicode="&#x137;" horiz-adv-x="552" 
d="M579 131q-136 -91 -279 -158l-125 88q-31 88 -41 170q-51 -116 -101 -258l-119 77q87 234 239 502q48 84 98 162l103 -77q-101 -149 -189 -336q134 125 278 228l102 -95q-184 -117 -284 -189q17 -48 51 -117q127 43 245 104zM-14 -239q61 85 123 232l122 -73
q-64 -118 -147 -213z" />
    <glyph glyph-name="kgreenlandic" unicode="&#x138;" horiz-adv-x="552" 
d="M579 131q-136 -91 -279 -158l-125 88q-33 96 -43 176q-40 -91 -94 -264l-119 77q58 195 171 390q38 66 82 128l110 -77q-69 -89 -122 -195q154 142 283 233l102 -95q-184 -117 -284 -189q17 -48 51 -117q127 43 245 104z" />
    <glyph glyph-name="Ldot" unicode="&#x13f;" horiz-adv-x="510" 
d="M125 140q104 -22 266 -38l-43 -139q-137 12 -196.5 23t-93.5 18l-120 109q122 254 359 576l103 -104q-131 -180 -275 -445zM281 307q27 27 66 27t66 -27t27 -66q0 -60 -57 -86q-56 -24 -102 20q-27 26 -27 65.5t27 66.5z" />
    <glyph glyph-name="ldot" unicode="&#x140;" horiz-adv-x="465" 
d="M-63 88q35 130 134 314q111 205 221 334l102 -75q-103 -122 -200 -304q-83 -153 -111 -260q136 10 285 79q52 23 102 56l21 -101q-148 -103 -319 -142q-57 -13 -111 -16zM262 242q-24 24 -24 58.5t24 58.5t59 24t59 -24t24 -58.5t-24 -58.5t-59 -24t-59 24z" />
    <glyph glyph-name="Lslash" unicode="&#x141;" horiz-adv-x="510" 
d="M427 322q-136 -28 -467 -74l-12 91q150 21 462 83zM125 140q104 -22 266 -38l-43 -139q-137 12 -196.5 23t-93.5 18l-120 109q122 254 359 576l103 -104q-131 -180 -275 -445z" />
    <glyph glyph-name="lslash" unicode="&#x142;" horiz-adv-x="465" 
d="M255 703q-54 -9 -114 -30l-43 62q95 57 176 75q138 -75 256 -175l-43 -85q-110 90 -232 153zM-63 88q33 118 118 274q87 162 195 293l112 -76q-99 -122 -182 -266q-73 -128 -99 -214q141 11 287 77q52 23 102 56l21 -101q-148 -103 -319 -142q-57 -13 -111 -16z" />
    <glyph glyph-name="Nacute" unicode="&#x143;" horiz-adv-x="727" 
d="M-70 77q57 137 165 325q97 170 198 302l99 -97q2 -167 18 -351q107 225 241 409l102 -94q-164 -229 -313 -581l-133 -27q-32 236 -42 450q-134 -225 -219 -442zM788 809q-137 -62 -285 -101l-39 97q140 55 189.5 79.5t83.5 43.5z" />
    <glyph glyph-name="nacute" unicode="&#x144;" horiz-adv-x="629" 
d="M195 348q100 79 207 136l121 -95q-33 -142 -116 -256q100 34 227 99l21 -101q-41 -27 -125 -69q-144 -71 -199 -89l-124 88q60 72 100.5 142.5t52.5 123.5q-128 -60 -244 -140q-46 -110 -78 -214l-119 77q34 115 106 259q65 129 136 218l101 -73q-35 -47 -67 -106z
M659 723q-89 -83 -236 -184l-75 77q109 84 214 201z" />
    <glyph glyph-name="OE" unicode="&#x152;" horiz-adv-x="951" 
d="M380 51q-101 -78 -250 -103l-148 136q29 308 253 496q78 66 183 115q67 -36 118 -72l26 56q200 -28 385 -106l-54 -127q-92 38 -241 75l-43 -127q91 -24 193 -42l-44 -123l-112 24q-64 15 -96 26q-26 -45 -72 -138q155 -40 308 -49l-45 -128q-153 8 -319 49zM593 398
q-96 85 -184 139q-100 -53 -179 -178q-82 -128 -94 -263q38 6 76 19.5t79 48.5q90 77 185 269q27 -9 117 -35z" />
    <glyph glyph-name="oe" unicode="&#x153;" horiz-adv-x="830" 
d="M289 62q-83 -63 -181 -89l-142 119q0 96 38 190q48 118 158 191q76 51 165 63l109 -94q70 61 155 89l169 -140q-25 -104 -95 -151t-167 -47q-56 0 -83 7q-16 -39 -20 -97q173 10 336 77q55 22 104 52l22 -101q-93 -59 -217 -104q-133 -48 -254 -54zM457 290q58 0 105 32
q55 38 55 106q-51 -24 -94 -60.5t-66 -77.5zM100 109q114 26 190 141q32 49 46 94t15 72q-81 -11 -154 -86q-91 -93 -97 -221z" />
    <glyph glyph-name="Racute" unicode="&#x154;" horiz-adv-x="678" 
d="M338 213q60 -96 144 -185l-133 -86q-92 119 -177 284q-69 -119 -125 -255l-113 104q67 148 120 235q86 143 179 253q-69 12 -125 12l43 119q188 -6 327 -49q52 -16 105 -39l78 -172q-102 -135 -323 -221zM212 293q136 52 242 131q36 26 62 53q-95 50 -252 80l86 -70
q-80 -102 -138 -194zM759 809q-137 -62 -285 -101l-39 97q140 55 189.5 79.5t83.5 43.5z" />
    <glyph glyph-name="Rcommaaccent" unicode="&#x156;" horiz-adv-x="678" 
d="M338 213q60 -96 144 -185l-133 -86q-92 119 -177 284q-69 -119 -125 -255l-113 104q67 148 120 235q86 143 179 253q-69 12 -125 12l43 119q188 -6 327 -49q52 -16 105 -39l78 -172q-102 -135 -323 -221zM212 293q136 52 242 131q36 26 62 53q-95 50 -252 80l86 -70
q-80 -102 -138 -194zM17 -239q61 85 123 232l122 -73q-64 -118 -147 -213z" />
    <glyph glyph-name="rcommaaccent" unicode="&#x157;" horiz-adv-x="584" 
d="M38 448q48 65 120 135l93 -72q-11 -46 -19 -67q129 14 186 28t99 25l28 -119q-41 -12 -86 -21q-69 -109 -115 -231q166 57 245 106l22 -101q-92 -60 -241 -123q-48 -20 -92 -35l-106 106q65 149 139 257q-70 -6 -124 -8q-16 -30 -86 -150l-74 -47l-95 56q83 90 112 126
t50 62q-29 32 -56 73zM-95 -194q61 85 123 232l122 -73q-64 -118 -147 -213z" />
    <glyph glyph-name="Rcaron" unicode="&#x158;" horiz-adv-x="678" 
d="M338 213q60 -96 144 -185l-133 -86q-92 119 -177 284q-69 -119 -125 -255l-113 104q67 148 120 235q86 143 179 253q-69 12 -125 12l43 119q188 -6 327 -49q52 -16 105 -39l78 -172q-102 -135 -323 -221zM212 293q136 52 242 131q36 26 62 53q-95 50 -252 80l86 -70
q-80 -102 -138 -194zM527 779q107 30 193 71l48 -88q-91 -50 -142.5 -68.5t-88.5 -30.5l-119 61q-37 75 -51.5 124t-23.5 83l99 25q44 -107 85 -177z" />
    <glyph glyph-name="rcaron" unicode="&#x159;" horiz-adv-x="584" 
d="M38 448q48 65 120 135l93 -72q-11 -46 -19 -67q129 14 186 28t99 25l28 -119q-41 -12 -86 -21q-69 -109 -115 -231q166 57 245 106l22 -101q-92 -60 -241 -123q-48 -20 -92 -35l-106 106q65 149 139 257q-70 -6 -124 -8q-16 -30 -86 -150l-74 -47l-95 56q83 90 112 126
t50 62q-29 32 -56 73zM624 663q-102 -56 -231 -108l-119 61q-29 110 -48 216l99 25q30 -114 60 -183q96 32 129 47t62 30z" />
    <glyph glyph-name="Ydieresis" unicode="&#x178;" horiz-adv-x="566" 
d="M245 353q158 138 278 310l112 -107q-186 -236 -390 -360q-55 -85 -108 -237l-124 107q42 105 60.5 138.5t38.5 65.5q-23 200 37 461l134 -123q-34 -133 -38 -255zM271 789q-23 23 -23 56t23.5 56.5t56.5 23.5t56 -23.5t23 -56.5t-23 -56t-56 -23t-57 23zM528 693
q-23 23 -23 56t23 56t56 23t56 -23t23 -56t-23 -56t-56 -23t-56 23z" />
    <glyph glyph-name="dotlessj" unicode="&#x237;" horiz-adv-x="332" 
d="M25 8q-56 -121 -113 -302l-116 73q123 381 318 664q29 42 55 75l99 -73q-120 -165 -185 -321q74 22 135.5 50.5t118.5 57.5l21 -101q-90 -59 -218 -115q-44 -19 -88 -34z" />
    <glyph glyph-name="circumflex" unicode="&#x2c6;" horiz-adv-x="355" 
d="M309 675q-116 -39 -190 -77l-48 89q112 61 231 108l119 -61q27 -100 34.5 -141.5t13.5 -74.5l-99 -25q-29 109 -61 182z" />
    <glyph glyph-name="caron" unicode="&#x2c7;" horiz-adv-x="355" 
d="M469 663q-102 -56 -231 -108l-119 61q-29 110 -48 216l99 25q30 -114 60 -183q96 32 129 47t62 30z" />
    <glyph glyph-name="ring" unicode="&#x2da;" horiz-adv-x="355" 
d="M127 589q-34 34 -34 83.5t33.5 83t84.5 33.5q48 0 82 -34t34 -84q0 -48 -34 -82t-83 -34t-83 34zM176 638.5q14 -13.5 33.5 -13.5t33 13.5t13.5 33t-13.5 33.5t-33 14t-33.5 -14t-14 -33.5t14 -33z" />
    <glyph glyph-name="tilde" unicode="&#x2dc;" horiz-adv-x="355" 
d="M489 549q-78 -24 -140 -24q-24 7 -46 24.5t-43.5 37t-41.5 36t-39 20.5l-81 -6l-10 95q37 12 80.5 18t57.5 6q24 -7 46.5 -25t44 -37.5t41.5 -36t39 -20.5l80 6z" />
    <glyph glyph-name="endash" unicode="&#x2013;" horiz-adv-x="689" 
d="M517 178q-263 84 -477 128l40 115q216 -45 478 -129z" />
    <glyph glyph-name="emdash" unicode="&#x2014;" horiz-adv-x="917" 
d="M735 122q-341 119 -688 177l36 117q318 -58 689 -178z" />
    <glyph glyph-name="quoteleft" unicode="&#x2018;" horiz-adv-x="284" 
d="M353 670q-81 -122 -147 -259l-125 79q80 122 176 240z" />
    <glyph glyph-name="quoteright" unicode="&#x2019;" horiz-adv-x="289" 
d="M343 653q-80 -122 -176 -240l-96 60q81 123 147 259z" />
    <glyph glyph-name="quotesinglbase" unicode="&#x201a;" horiz-adv-x="353" 
d="M-84 -157q81 123 147 259l125 -79q-80 -122 -176 -240z" />
    <glyph glyph-name="quotedblleft" unicode="&#x201c;" horiz-adv-x="527" 
d="M353 670q-81 -122 -147 -259l-125 79q80 122 176 240zM596 670q-81 -122 -147 -259l-125 79q80 122 176 240z" />
    <glyph glyph-name="quotedblright" unicode="&#x201d;" horiz-adv-x="532" 
d="M343 653q-80 -122 -176 -240l-96 60q81 123 147 259zM586 653q-80 -122 -176 -240l-96 60q81 123 147 259z" />
    <glyph glyph-name="quotedblbase" unicode="&#x201e;" horiz-adv-x="596" 
d="M-84 -157q81 123 147 259l125 -79q-80 -122 -176 -240zM159 -157q81 123 147 259l125 -79q-80 -122 -176 -240z" />
    <glyph glyph-name="bullet" unicode="&#x2022;" horiz-adv-x="380" 
d="M78 229q-34 34 -34 84t34 84t83 34q51 0 85 -34t34 -84t-34 -84t-84 -34t-84 34z" />
    <glyph glyph-name="ellipsis" unicode="&#x2026;" horiz-adv-x="906" 
d="M27 76q27 27 66 27t66 -27t27 -66q0 -60 -57 -86q-56 -24 -102 20q-27 26 -27 65.5t27 66.5zM297 76q27 27 66 27t66 -27t27 -66q0 -60 -57 -86q-56 -24 -102 20q-27 26 -27 65.5t27 66.5zM567 76q27 27 66 27t66 -27t27 -66q0 -60 -57 -86q-56 -24 -102 20
q-27 26 -27 65.5t27 66.5z" />
    <glyph glyph-name="guilsinglleft" unicode="&#x2039;" horiz-adv-x="457" 
d="M222 98q-70 79 -158 218l57 100q93 55 220 97l50 -87q-119 -58 -189 -103q44 -84 98 -166z" />
    <glyph glyph-name="guilsinglright" unicode="&#x203a;" horiz-adv-x="493" 
d="M232 504q91 -103 159 -211l-57 -100q-107 -62 -221 -104l-50 87q111 56 188 109q-27 52 -96 160z" />
    <glyph glyph-name="Euro" unicode="&#x20ac;" horiz-adv-x="659" 
d="M31 91q25 131 74 234q-50 27 -73 39l38 63q27 -11 71 -35l25 38l-69 36l38 63q26 -12 79 -39q95 109 240 177l188 -126q-19 -62 -42.5 -110.5t-35.5 -66.5l-117 57q33 58 51 128q-87 -45 -165 -130q16 -10 97 -67l-43 -62q-57 40 -103 69l-25 -37q66 -43 106 -73l-43 -62
l-45 31q-25 18 -54 36q-35 -74 -44 -149q114 14 256 75l40 -109q-145 -77 -314 -94z" />
    <glyph glyph-name="trademark" unicode="&#x2122;" horiz-adv-x="968" 
d="M104 418q32 80 67.5 137t69.5 104q-44 11 -91 20l48 87q122 -17 276 -68l-43 -98q-103 36 -161 51l56 -47q-64 -86 -108 -184q-15 -34 -32 -76zM671 499q88 104 173 228l99 -84q-46 -160 -71 -222.5t-48 -115.5l-81 66q48 103 74 180q-82 -107 -177 -222l-73 62
q20 120 42 210q-69 -104 -140 -256l-78 72q93 190 221 341l102 -90q-28 -89 -43 -169z" />
    <glyph glyph-name="minus" unicode="&#x2212;" horiz-adv-x="591" 
d="M424 181q-193 83 -378 129l46 114q192 -50 378 -132z" />
    <glyph glyph-name="commaaccent" unicode="&#xf6c3;" horiz-adv-x="355" 
d="M-55 -236q61 85 123 232l122 -73q-64 -118 -147 -213z" />
    <glyph glyph-name="acute.cap" horiz-adv-x="355" 
d="M399 809q-137 -62 -285 -101l-39 97q140 55 189.5 79.5t83.5 43.5z" />
    <glyph glyph-name="dieresis.cap" horiz-adv-x="355" 
d="M162 812q-23 23 -23 56t23.5 56.5t56.5 23.5t56 -23.5t23 -56.5t-23 -56t-56 -23t-57 23zM419 716q-23 23 -23 56t23 56t56 23t56 -23t23 -56t-23 -56t-56 -23t-56 23z" />
    <glyph glyph-name="grave.cap" horiz-adv-x="355" 
d="M322 666q-95 100 -221 193l80 91q130 -113 213 -209z" />
    <glyph glyph-name="ring.cap" horiz-adv-x="355" 
d="M188 670q-34 34 -34 83.5t33.5 83t84.5 33.5q50 0 82 -34q34 -35 34 -84q0 -47 -34 -82q-32 -34 -82 -34t-84 34zM237 719.5q14 -13.5 33.5 -13.5t33.5 13.5t14 33t-14 33.5t-33.5 14t-33.5 -14t-14 -33.5t14 -33z" />
    <glyph glyph-name="circumflex.cap" horiz-adv-x="355" 
d="M487 628q-41 99 -85 176q-84 -23 -124 -40.5t-69 -30.5l-48 89q90 49 141.5 68t89.5 31l119 -61q41 -82 75 -207z" />
    <glyph glyph-name="caron.cap" horiz-adv-x="355" 
d="M345 743q107 30 193 71l48 -88q-91 -50 -142.5 -68.5t-88.5 -30.5l-119 61q-37 75 -51.5 124t-23.5 83l99 25q44 -107 85 -177z" />
    <glyph glyph-name="tilde.cap" horiz-adv-x="355" 
d="M406 661q-24 7 -47.5 24.5t-45.5 37t-41.5 36t-35.5 20.5l-81 -5l-10 94q42 14 83 19.5t55 5.5q34 -10 93 -63q22 -19 42 -35.5t36 -20.5l80 5l11 -93q-42 -14 -84 -19.5t-55 -5.5z" />
  </font>
</defs>
</svg>
