<svg width="90.000000" height="61.000000" viewBox="0 0 90 61" fill="none" xmlns="http://www.w3.org/2000/svg" xmlns:xlink="http://www.w3.org/1999/xlink">
	<desc>
			Created with Pixso.
	</desc>
	<defs>
		<clipPath id="clip1_987">
			<rect id="Bike Repair" rx="-0.500000" width="89.000000" height="60.000000" transform="translate(0.500000 0.500000)" fill="white" fill-opacity="0"/>
		</clipPath>
	</defs>
	<rect id="Bike Repair" rx="-0.500000" width="89.000000" height="60.000000" transform="translate(0.500000 0.500000)" fill="#FFFFFF" fill-opacity="0"/>
	<g clip-path="url(#clip1_987)">
		<path id="Vector" d="M88.18 51.8L87.89 51.65C87.36 51.38 86.93 50.96 86.64 50.44C86.35 49.92 86.23 49.33 86.28 48.73C86.47 46.6 86.49 44.45 86.34 42.31C86.3 41.72 86.43 41.14 86.72 40.62C87.01 40.11 87.44 39.69 87.96 39.43L88.37 39.22C88.95 38.92 89.42 38.44 89.7 37.85C89.99 37.27 90.07 36.6 89.94 35.96C89.76 35.05 89.55 34.13 89.3 33.22C89.12 32.54 88.92 31.86 88.71 31.19C88.51 30.56 88.11 30.01 87.57 29.64C87.03 29.26 86.37 29.08 85.72 29.11L85.36 29.13C84.77 29.16 84.18 29.02 83.67 28.72C83.16 28.41 82.76 27.96 82.5 27.43C81.59 25.47 80.53 23.59 79.32 21.8C78.99 21.31 78.82 20.74 78.82 20.16C78.81 19.57 78.98 19 79.3 18.51L79.54 18.15C79.89 17.6 80.06 16.95 80.01 16.29C79.96 15.63 79.7 15.01 79.26 14.52C78.17 13.3 77.02 12.13 75.81 11.03C75.32 10.59 74.7 10.32 74.04 10.27C73.38 10.21 72.73 10.38 72.18 10.74L71.86 10.94C71.37 11.27 70.8 11.44 70.21 11.43C69.62 11.42 69.05 11.24 68.56 10.91C66.8 9.69 64.95 8.6 63.02 7.67C62.5 7.41 62.06 7 61.77 6.5C61.47 5.99 61.33 5.41 61.37 4.83L61.39 4.41C61.42 3.76 61.24 3.1 60.87 2.56C60.5 2.02 59.96 1.61 59.34 1.41C57.77 0.89 56.18 0.45 54.57 0.11C53.93 -0.03 53.26 0.04 52.66 0.33C52.07 0.61 51.58 1.08 51.28 1.67L51.1 2.02C50.84 2.55 50.43 2.98 49.91 3.27C49.4 3.56 48.82 3.69 48.23 3.64C46.14 3.48 44.03 3.48 41.93 3.64C41.35 3.68 40.76 3.55 40.25 3.26C39.75 2.97 39.33 2.53 39.07 2.01L38.88 1.63C38.58 1.05 38.1 0.57 37.51 0.29C36.92 0 36.25 -0.08 35.61 0.06C34.85 0.22 34.1 0.4 33.34 0.6L33.18 0.64C32.37 0.86 31.57 1.1 30.78 1.35C30.16 1.56 29.62 1.96 29.24 2.5C28.87 3.05 28.69 3.7 28.72 4.36L28.74 4.77C28.78 5.36 28.63 5.94 28.34 6.45C28.04 6.95 27.6 7.36 27.07 7.62C25.21 8.51 23.43 9.54 21.72 10.7C21.24 11.03 20.67 11.2 20.08 11.21C19.5 11.21 18.92 11.04 18.43 10.72L18.09 10.5C17.54 10.14 16.88 9.97 16.22 10.02C15.57 10.07 14.95 10.34 14.46 10.78C13.2 11.91 12.01 13.11 10.88 14.37C10.45 14.86 10.18 15.48 10.13 16.14C10.08 16.79 10.25 17.45 10.6 18L10.83 18.35C11.15 18.84 11.32 19.42 11.31 20.01C11.31 20.6 11.13 21.17 10.8 21.66C9.66 23.32 8.65 25.07 7.77 26.88C7.51 27.4 7.1 27.84 6.6 28.14C6.09 28.43 5.52 28.57 4.93 28.54L4.5 28.51C3.85 28.48 3.2 28.66 2.66 29.03C2.12 29.4 1.71 29.94 1.51 30.57C0.97 32.19 0.52 33.84 0.16 35.52C0.02 36.17 0.1 36.84 0.38 37.44C0.66 38.04 1.14 38.53 1.72 38.83L2.07 39.01C2.6 39.27 3.03 39.69 3.32 40.2C3.61 40.72 3.74 41.3 3.69 41.89C3.54 43.88 3.53 45.87 3.66 47.86C3.7 48.44 3.57 49.02 3.28 49.53C2.99 50.04 2.56 50.45 2.04 50.71L1.63 50.92C1.05 51.21 0.58 51.69 0.3 52.28C0.01 52.86 -0.07 53.53 0.05 54.17C0.24 55.09 0.46 56.02 0.7 56.94C0.9 57.69 1.12 58.44 1.36 59.18C1.6 59.92 2.11 60.54 2.8 60.9L10.62 60.9C9.73 58.95 9.01 56.93 8.46 54.86C3.08 34.65 15.09 13.81 35.24 8.42L35.38 8.39C55.48 3.09 76.16 15.13 81.53 35.29C83.81 43.82 83.04 52.88 79.35 60.9L87.79 60.9C88.06 60.6 88.27 60.25 88.4 59.87C88.93 58.31 89.37 56.72 89.74 55.12C89.88 54.47 89.8 53.79 89.52 53.19C89.24 52.59 88.77 52.1 88.18 51.8Z" fill="#EB5757" fill-opacity="1.000000" fill-rule="nonzero"/>
		<path id="Vector" d="M27.1 60.92C25.12 60.92 23.17 60.45 21.41 59.55C19.65 58.65 18.12 57.35 16.96 55.74C15.79 54.14 15.02 52.29 14.71 50.33C14.39 48.37 14.54 46.36 15.15 44.47C15.75 42.59 16.8 40.87 18.19 39.46C19.58 38.05 21.28 36.99 23.16 36.37C25.04 35.75 27.04 35.58 28.99 35.88C30.95 36.18 32.8 36.94 34.41 38.09C34.66 38.27 34.83 38.55 34.88 38.85C34.93 39.16 34.86 39.47 34.68 39.73C34.5 39.98 34.23 40.15 33.92 40.2C33.61 40.25 33.3 40.18 33.05 40C31.07 38.58 28.66 37.92 26.24 38.13C23.82 38.34 21.55 39.41 19.85 41.15C18.15 42.88 17.12 45.18 16.95 47.61C16.78 50.04 17.48 52.45 18.92 54.41C20.37 56.37 22.46 57.74 24.83 58.29C27.2 58.84 29.68 58.52 31.84 57.39C33.99 56.26 35.67 54.4 36.58 52.14C37.49 49.88 37.56 47.37 36.79 45.06C36.69 44.76 36.71 44.44 36.85 44.17C36.99 43.89 37.23 43.68 37.52 43.58C37.82 43.48 38.14 43.5 38.41 43.64C38.69 43.78 38.9 44.02 39 44.31C39.64 46.21 39.81 48.22 39.51 50.2C39.22 52.17 38.45 54.05 37.29 55.67C36.13 57.29 34.6 58.62 32.83 59.53C31.05 60.44 29.09 60.92 27.1 60.92Z" fill="#EB5757" fill-opacity="1.000000" fill-rule="nonzero"/>
		<path id="Vector" d="M61.8 60.92C59.68 60.92 57.59 60.42 55.7 59.47C53.8 58.51 52.16 57.13 50.89 55.42C49.62 53.72 48.77 51.74 48.4 49.64C48.03 47.55 48.15 45.4 48.75 43.36C48.85 43.07 49.05 42.83 49.32 42.7C49.59 42.56 49.9 42.53 50.19 42.61C50.48 42.7 50.72 42.89 50.87 43.15C51.02 43.42 51.07 43.73 50.99 44.02C50.22 46.62 50.39 49.41 51.5 51.89C52.6 54.37 54.56 56.37 57.01 57.52C59.46 58.67 62.24 58.91 64.84 58.17C67.45 57.44 69.71 55.79 71.2 53.53C72.7 51.27 73.33 48.54 72.99 45.85C72.65 43.15 71.35 40.67 69.34 38.86C67.33 37.04 64.73 36.02 62.03 35.96C59.32 35.9 56.69 36.83 54.6 38.56C54.36 38.73 54.07 38.8 53.77 38.76C53.48 38.73 53.21 38.58 53.02 38.35C52.84 38.12 52.74 37.83 52.76 37.53C52.78 37.24 52.9 36.96 53.12 36.75C54.8 35.35 56.79 34.38 58.93 33.91C61.07 33.45 63.28 33.51 65.39 34.08C67.5 34.66 69.44 35.74 71.05 37.22C72.65 38.71 73.88 40.56 74.62 42.63C75.36 44.69 75.6 46.9 75.31 49.08C75.02 51.25 74.21 53.32 72.95 55.12C71.7 56.91 70.03 58.37 68.09 59.38C66.15 60.39 63.99 60.92 61.8 60.92Z" fill="#EB5757" fill-opacity="1.000000" fill-rule="nonzero"/>
		<path id="Vector" d="M29.36 48.6C29.12 48.6 28.89 48.53 28.69 48.39C28.5 48.25 28.35 48.06 28.26 47.83C28.18 47.61 28.17 47.37 28.23 47.13C28.29 46.9 28.42 46.69 28.6 46.54L40 36.68L35.27 35.15C35.12 35.11 34.98 35.03 34.86 34.94C34.74 34.84 34.63 34.71 34.56 34.58C34.49 34.44 34.44 34.28 34.43 34.13C34.41 33.97 34.43 33.81 34.48 33.66C34.53 33.51 34.6 33.37 34.71 33.25C34.81 33.13 34.93 33.04 35.08 32.97C35.22 32.9 35.37 32.86 35.53 32.85C35.68 32.84 35.84 32.86 35.99 32.92L44.69 35.73L30.12 48.32C29.91 48.5 29.64 48.6 29.36 48.6Z" fill="#EB5757" fill-opacity="1.000000" fill-rule="nonzero"/>
		<path id="Vector" d="M59.72 44.08C59.6 44.08 59.49 44.07 59.38 44.03L43.9 39.3L52.95 30.81C53.18 30.61 53.48 30.51 53.78 30.53C54.08 30.54 54.37 30.68 54.58 30.9C54.78 31.12 54.9 31.41 54.89 31.72C54.89 32.02 54.76 32.31 54.55 32.53L48.44 38.24L60.05 41.79C60.32 41.87 60.55 42.05 60.69 42.28C60.84 42.52 60.9 42.8 60.86 43.08C60.82 43.36 60.69 43.61 60.48 43.79C60.27 43.98 60 44.08 59.72 44.08Z" fill="#EB5757" fill-opacity="1.000000" fill-rule="nonzero"/>
		<path id="Vector" d="M28.59 34.03C28.33 34.03 28.07 33.94 27.87 33.77C27.66 33.61 27.52 33.38 27.46 33.12C27.4 32.87 27.42 32.6 27.53 32.36C27.65 32.12 27.84 31.92 28.07 31.81C32.18 29.75 42.22 26.41 49.62 25.75C49.77 25.73 49.92 25.75 50.07 25.8C50.22 25.84 50.35 25.92 50.47 26.02C50.59 26.12 50.68 26.24 50.75 26.37C50.82 26.51 50.87 26.66 50.88 26.81C50.89 26.97 50.88 27.12 50.83 27.27C50.79 27.42 50.71 27.55 50.61 27.67C50.51 27.79 50.39 27.88 50.26 27.96C50.12 28.03 49.97 28.07 49.82 28.08C42.71 28.72 33.06 31.93 29.11 33.91C28.95 33.99 28.77 34.03 28.59 34.03Z" fill="#EB5757" fill-opacity="1.000000" fill-rule="nonzero"/>
		<path id="Vector" d="M23.25 31.48C22.98 31.48 22.73 31.39 22.52 31.22C22.31 31.05 22.17 30.82 22.11 30.57C22.05 30.31 22.08 30.04 22.19 29.8C22.31 29.56 22.5 29.36 22.73 29.25C31.67 24.89 42.05 23.19 49.19 22.53C49.34 22.51 49.5 22.53 49.65 22.58C49.79 22.62 49.93 22.7 50.05 22.79C50.16 22.89 50.26 23.01 50.33 23.15C50.41 23.29 50.45 23.44 50.46 23.59C50.48 23.74 50.46 23.9 50.42 24.04C50.37 24.19 50.3 24.33 50.2 24.45C50.1 24.56 49.98 24.66 49.84 24.73C49.71 24.81 49.56 24.85 49.41 24.86C42.46 25.51 32.37 27.16 23.75 31.36C23.59 31.44 23.42 31.48 23.25 31.48Z" fill="#EB5757" fill-opacity="1.000000" fill-rule="nonzero"/>
		<path id="Vector" d="M61.21 20.87C60.73 20.29 60.12 19.84 59.43 19.53C58.08 18.97 56.75 18.46 52.64 18.32C51.21 18.28 49.78 18.36 48.36 18.56C48.07 18.62 47.82 18.79 47.65 19.03C47.48 19.27 47.4 19.57 47.44 19.86C47.48 20.16 47.63 20.42 47.85 20.61C48.08 20.8 48.37 20.9 48.66 20.88C50.39 20.63 52.15 20.58 53.89 20.74C53.29 21.41 52.89 22.24 52.73 23.12C52.57 24.01 52.66 24.92 52.99 25.76C53.32 26.6 53.88 27.33 54.6 27.87C55.32 28.41 56.17 28.73 57.07 28.81C57.21 28.83 57.36 28.83 57.5 28.83C58.71 28.83 59.87 28.38 60.77 27.56C61.66 26.74 62.21 25.62 62.32 24.41C62.37 23.78 62.31 23.14 62.12 22.53C61.93 21.92 61.62 21.36 61.21 20.87ZM59.99 24.21C59.94 24.69 59.76 25.15 59.46 25.54C59.16 25.92 58.76 26.21 58.3 26.36C57.84 26.52 57.34 26.54 56.87 26.42C56.4 26.29 55.98 26.04 55.65 25.68C55.32 25.32 55.11 24.87 55.03 24.39C54.95 23.91 55.01 23.42 55.21 22.98C55.4 22.53 55.72 22.15 56.13 21.89C56.53 21.62 57.01 21.48 57.49 21.48C57.57 21.48 57.64 21.48 57.72 21.49C58.38 21.55 58.99 21.87 59.41 22.38C59.84 22.89 60.05 23.55 59.99 24.21Z" fill="#EB5757" fill-opacity="1.000000" fill-rule="nonzero"/>
	</g>
</svg>
